#N canvas -8 -8 1536 781 12;
#X obj 64 43 receive fromGUI;
#X obj 63 84 list trim;
#X obj 147 129 route /maj1 /maj2 /maj3;
#X obj 335 129 route /rel1 /rel2 /rel3;
#X obj 550 132 route /sup1 /sup2 /sup3;
#X obj 33 143 route /start;
#X obj 389 491 receive clearAll;
#X msg 386 564 list /maj2 enable 0;
#X msg 396 535 list /maj1 enable 0;
#X msg 398 593 list /maj3 enable 0;
#X msg 375 619 list /rel1 enable 0;
#X msg 397 646 list /rel2 enable 0;
#X msg 377 672 list /rel3 enable 0;
#X msg 407 695 list /sup1 enable 0;
#X msg 364 715 list /sup2 enable 0;
#X msg 433 738 list /sup3 enable 0;
#X obj 285 648 send toGUI;
#X obj 354 222 send clearAll;
#X msg 356 261 list /maj2 enable 1;
#X msg 347 300 list /maj3 enable 1;
#X msg 364 341 list /rel1 enable 1;
#X obj 348 415 send toGUI;
#X msg 373 375 list /sup3 enable 1;
#X obj 910 7 receive fromSystem;
#X obj 913 59 list trim;
#X obj 1006 748 send toGUI;
#X obj 899 168 unpack 0 0 0;
#X obj 960 235 / 3.1416;
#X obj 1061 239 / 3.1416;
#X obj 881 235 / 3.1416;
#X msg 834 628 list /maj2 \$1;
#X msg 1230 629 list /rel2 \$1;
#X floatatom 1001 371 5 0 1 1 gyroscope_gate - -, f 5;
#X obj 869 406 *;
#X obj 959 404 *;
#X obj 1080 408 *;
#N canvas 909 81 450 300 gateGyro 0;
#X obj 104 49 inlet;
#X obj 104 265 outlet;
#X obj 104 95 spigot;
#X msg 104 216 0;
#X obj 185 262 outlet;
#X msg 185 214 1;
#X obj 104 133 bng 15 250 50 0 empty empty empty 17 7 0 10 -262144
-1 -1;
#X obj 185 176 delay 500;
#X obj 106 176 delay 1;
#X connect 0 0 2 0;
#X connect 0 0 2 1;
#X connect 2 0 6 0;
#X connect 3 0 1 0;
#X connect 5 0 4 0;
#X connect 6 0 7 0;
#X connect 6 0 8 0;
#X connect 7 0 5 0;
#X connect 8 0 3 0;
#X restore 1307 490 pd gateGyro;
#X obj 1001 343 r gateVal;
#X obj 1306 531 s gateVal;
#X obj 797 449 > 0.55;
#X obj 1043 455 < -0.55;
#X obj 1200 459 < -0.55;
#X obj 944 452 > 0.55;
#X msg 711 626 list /maj3 \$1;
#X msg 961 627 list /maj1 \$1;
#X msg 1103 629 list /rel3 \$1;
#X msg 1353 630 list /rel1 \$1;
#X obj 806 281 expr $f1*(abs($f1)>abs($f2))*(abs($f1)>abs($f3)) \;
$f2*(abs($f2)>abs($f1))*(abs($f2)>abs($f3)) \; $f3*(abs($f3)>abs($f1))*(abs($f3)>abs($f2))
\;;
#X obj 872 450 > 0.95;
#X obj 1121 457 < -0.95;
#X obj 711 600 r maj3;
#X obj 797 496 s maj3;
#X obj 834 602 r maj2;
#X obj 872 496 s maj2;
#X obj 961 601 r maj1;
#X obj 908 117 route /gyro;
#X obj 33 212 s gateVal;
#X msg 33 180 1;
#X obj 39 302 r maj1;
#X obj 1200 498 s maj1;
#N canvas 93 121 450 301 synthmaj1 0;
#X msg 88 111 60;
#X obj 88 144 mtof;
#X obj 114 176 osc~;
#X obj 144 265 dac~;
#X obj 171 177 vline~;
#X msg 171 142 1 10 \, 0 200 50;
#X obj 145 216 *~;
#X obj 80 44 inlet;
#X obj 87 78 spigot;
#X connect 0 0 1 0;
#X connect 1 0 2 0;
#X connect 2 0 6 0;
#X connect 4 0 6 1;
#X connect 5 0 4 0;
#X connect 6 0 3 0;
#X connect 6 0 3 1;
#X connect 7 0 8 0;
#X connect 7 0 8 1;
#X connect 8 0 0 0;
#X connect 8 0 5 0;
#X restore 39 329 pd synthmaj1;
#X obj 39 360 r maj2;
#N canvas 93 121 450 301 synthmaj2 0;
#X obj 88 144 mtof;
#X obj 114 176 osc~;
#X obj 144 265 dac~;
#X obj 171 177 vline~;
#X msg 171 142 1 10 \, 0 200 50;
#X obj 145 216 *~;
#X obj 80 44 inlet;
#X obj 87 78 spigot;
#X msg 88 111 65;
#X connect 0 0 1 0;
#X connect 1 0 5 0;
#X connect 3 0 5 1;
#X connect 4 0 3 0;
#X connect 5 0 2 0;
#X connect 5 0 2 1;
#X connect 6 0 7 0;
#X connect 6 0 7 1;
#X connect 7 0 8 0;
#X connect 7 0 4 0;
#X connect 8 0 0 0;
#X restore 39 386 pd synthmaj2;
#X obj 39 418 r maj3;
#N canvas 93 121 450 301 synthmaj3 0;
#X obj 88 144 mtof;
#X obj 114 176 osc~;
#X obj 144 265 dac~;
#X obj 171 177 vline~;
#X msg 171 142 1 10 \, 0 200 50;
#X obj 145 216 *~;
#X obj 80 44 inlet;
#X obj 87 78 spigot;
#X msg 88 111 67;
#X connect 0 0 1 0;
#X connect 1 0 5 0;
#X connect 3 0 5 1;
#X connect 4 0 3 0;
#X connect 5 0 2 0;
#X connect 5 0 2 1;
#X connect 6 0 7 0;
#X connect 6 0 7 1;
#X connect 7 0 8 0;
#X connect 7 0 4 0;
#X connect 8 0 0 0;
#X restore 39 444 pd synthmaj3;
#X obj 39 474 r rel1;
#N canvas 93 121 450 301 synthrel1 0;
#X obj 88 144 mtof;
#X obj 114 176 osc~;
#X obj 144 265 dac~;
#X obj 171 177 vline~;
#X msg 171 142 1 10 \, 0 200 50;
#X obj 145 216 *~;
#X obj 80 44 inlet;
#X obj 87 78 spigot;
#X msg 88 111 57;
#X connect 0 0 1 0;
#X connect 1 0 5 0;
#X connect 3 0 5 1;
#X connect 4 0 3 0;
#X connect 5 0 2 0;
#X connect 5 0 2 1;
#X connect 6 0 7 0;
#X connect 6 0 7 1;
#X connect 7 0 8 0;
#X connect 7 0 4 0;
#X connect 8 0 0 0;
#X restore 39 500 pd synthrel1;
#X obj 38 530 r rel2;
#N canvas 93 121 450 301 synthrel2 0;
#X obj 88 144 mtof;
#X obj 114 176 osc~;
#X obj 144 265 dac~;
#X obj 171 177 vline~;
#X msg 171 142 1 10 \, 0 200 50;
#X obj 145 216 *~;
#X obj 80 44 inlet;
#X obj 87 78 spigot;
#X msg 88 111 62;
#X connect 0 0 1 0;
#X connect 1 0 5 0;
#X connect 3 0 5 1;
#X connect 4 0 3 0;
#X connect 5 0 2 0;
#X connect 5 0 2 1;
#X connect 6 0 7 0;
#X connect 6 0 7 1;
#X connect 7 0 8 0;
#X connect 7 0 4 0;
#X connect 8 0 0 0;
#X restore 38 556 pd synthrel2;
#X obj 38 585 r rel3;
#N canvas 93 121 450 301 synthrel3 0;
#X obj 88 144 mtof;
#X obj 114 176 osc~;
#X obj 144 265 dac~;
#X obj 171 177 vline~;
#X msg 171 142 1 10 \, 0 200 50;
#X obj 145 216 *~;
#X obj 80 44 inlet;
#X obj 87 78 spigot;
#X msg 88 111 64;
#X connect 0 0 1 0;
#X connect 1 0 5 0;
#X connect 3 0 5 1;
#X connect 4 0 3 0;
#X connect 5 0 2 0;
#X connect 5 0 2 1;
#X connect 6 0 7 0;
#X connect 6 0 7 1;
#X connect 7 0 8 0;
#X connect 7 0 4 0;
#X connect 8 0 0 0;
#X restore 39 611 pd synthrel3;
#X obj 944 496 s rel1;
#X obj 1353 605 r rel1;
#X obj 1043 496 s rel3;
#X obj 1103 605 r rel3;
#X obj 1121 496 s rel2;
#X obj 1230 605 r rel2;
#X connect 0 0 1 0;
#X connect 1 0 5 0;
#X connect 2 0 17 0;
#X connect 2 0 18 0;
#X connect 2 0 19 0;
#X connect 2 0 20 0;
#X connect 2 0 22 0;
#X connect 5 0 57 0;
#X connect 6 0 8 0;
#X connect 6 0 7 0;
#X connect 6 0 9 0;
#X connect 6 0 10 0;
#X connect 6 0 11 0;
#X connect 6 0 12 0;
#X connect 6 0 13 0;
#X connect 6 0 14 0;
#X connect 6 0 15 0;
#X connect 7 0 16 0;
#X connect 8 0 16 0;
#X connect 9 0 16 0;
#X connect 10 0 16 0;
#X connect 11 0 16 0;
#X connect 12 0 16 0;
#X connect 13 0 16 0;
#X connect 14 0 16 0;
#X connect 15 0 16 0;
#X connect 18 0 21 0;
#X connect 19 0 21 0;
#X connect 20 0 21 0;
#X connect 22 0 21 0;
#X connect 23 0 24 0;
#X connect 24 0 55 0;
#X connect 26 0 29 0;
#X connect 26 1 27 0;
#X connect 26 2 28 0;
#X connect 27 0 47 1;
#X connect 28 0 47 2;
#X connect 29 0 47 0;
#X connect 30 0 25 0;
#X connect 31 0 25 0;
#X connect 32 0 33 1;
#X connect 32 0 34 1;
#X connect 32 0 35 1;
#X connect 33 0 39 0;
#X connect 33 0 40 0;
#X connect 34 0 48 0;
#X connect 34 0 49 0;
#X connect 35 0 41 0;
#X connect 35 0 42 0;
#X connect 36 0 38 0;
#X connect 36 1 38 0;
#X connect 37 0 32 0;
#X connect 39 0 36 0;
#X connect 39 0 51 0;
#X connect 40 0 36 0;
#X connect 40 0 73 0;
#X connect 41 0 36 0;
#X connect 41 0 59 0;
#X connect 42 0 36 0;
#X connect 42 0 71 0;
#X connect 43 0 25 0;
#X connect 44 0 25 0;
#X connect 45 0 25 0;
#X connect 46 0 25 0;
#X connect 47 0 33 0;
#X connect 47 1 34 0;
#X connect 47 2 35 0;
#X connect 48 0 36 0;
#X connect 48 0 53 0;
#X connect 49 0 36 0;
#X connect 49 0 75 0;
#X connect 50 0 43 0;
#X connect 52 0 30 0;
#X connect 54 0 44 0;
#X connect 55 0 26 0;
#X connect 57 0 56 0;
#X connect 58 0 60 0;
#X connect 61 0 62 0;
#X connect 63 0 64 0;
#X connect 65 0 66 0;
#X connect 67 0 68 0;
#X connect 69 0 70 0;
#X connect 72 0 46 0;
#X connect 74 0 45 0;
#X connect 76 0 31 0;
