#N canvas -8 -8 1536 781 12;
#X obj 64 43 receive fromGUI;
#X obj 63 84 list trim;
#X obj 147 129 route /maj1 /maj2 /maj3;
#X obj 335 129 route /rel1 /rel2 /rel3;
#X obj 550 132 route /sup1 /sup2 /sup3;
#X obj 33 143 route /start;
#X msg 57 209 list /start enable 0;
#X obj 217 308 send toGUI;
#X msg 63 276 list /maj3 enable 0;
#X msg 59 240 list /maj2 enable 0;
#X msg 63 317 list /rel2 enable 0;
#X msg 61 354 list /rel3 enable 0;
#X msg 58 391 list /sup1 enable 0;
#X msg 53 426 list /sup2 enable 0;
#X msg 53 464 list /sup3 enable 0;
#X obj 389 491 receive clearAll;
#X msg 386 564 list /maj2 enable 0;
#X msg 396 535 list /maj1 enable 0;
#X msg 398 593 list /maj3 enable 0;
#X msg 375 619 list /rel1 enable 0;
#X msg 397 646 list /rel2 enable 0;
#X msg 377 672 list /rel3 enable 0;
#X msg 407 695 list /sup1 enable 0;
#X msg 364 715 list /sup2 enable 0;
#X msg 433 738 list /sup3 enable 0;
#X obj 285 648 send toGUI;
#X obj 354 222 send clearAll;
#X msg 356 261 list /maj2 enable 1;
#X msg 347 300 list /maj3 enable 1;
#X msg 364 341 list /rel1 enable 1;
#X obj 348 415 send toGUI;
#X msg 373 375 list /sup3 enable 1;
#X obj 894 42 receive fromSystem;
#X obj 897 94 list trim;
#X obj 1006 748 send toGUI;
#X obj 883 203 unpack 0 0 0;
#X obj 944 270 / 3.1416;
#X obj 1045 274 / 3.1416;
#X obj 865 270 / 3.1416;
#X msg 834 628 list /maj2 \$1;
#X msg 1230 629 list /rel2 \$1;
#X floatatom 1255 381 5 0 1 1 gyroscope_gate - -, f 5;
#X obj 869 392 *;
#X obj 959 404 *;
#X obj 1090 408 *;
#X msg 1376 491 list /myLabel \$1;
#X obj 892 152 route /gyro /page;
#N canvas 909 81 450 300 gateGyro 1;
#X obj 104 49 inlet;
#X obj 104 265 outlet;
#X obj 104 95 spigot;
#X msg 104 216 0;
#X obj 185 262 outlet;
#X msg 185 214 1;
#X obj 104 133 bng 15 250 50 0 empty empty empty 17 7 0 10 -262144
-1 -1;
#X obj 185 176 delay 500;
#X obj 106 176 delay 1;
#X connect 0 0 2 0;
#X connect 0 0 2 1;
#X connect 2 0 6 0;
#X connect 3 0 1 0;
#X connect 5 0 4 0;
#X connect 6 0 7 0;
#X connect 6 0 8 0;
#X connect 7 0 5 0;
#X connect 8 0 3 0;
#X restore 900 531 pd gateGyro;
#X obj 1255 333 r gateVal;
#X msg 1112 212 1;
#X obj 899 572 s gateVal;
#X obj 797 449 > 0.55;
#X obj 1043 455 < -0.55;
#X obj 1200 459 < -0.55;
#X obj 944 452 > 0.55;
#X msg 711 626 list /maj3 \$1;
#X msg 961 627 list /maj1 \$1;
#X msg 1103 629 list /rel3 \$1;
#X msg 1353 630 list /rel1 \$1;
#X obj 675 370 expr;
#X obj 790 316 expr $f1*(abs($f1)>abs($f2))*(abs($f1)>abs($f3)) \;
$f2*(abs($f2)>abs($f1))*(abs($f2)>abs($f3)) \; $f3*(abs($f3)>abs($f1))*(abs($f3)>abs($f2))
\;;
#X obj 872 450 > 0.95;
#X obj 1121 457 < -0.95;
#X connect 0 0 1 0;
#X connect 2 0 26 0;
#X connect 2 0 27 0;
#X connect 2 0 28 0;
#X connect 2 0 29 0;
#X connect 2 0 31 0;
#X connect 5 0 6 0;
#X connect 5 0 9 0;
#X connect 5 0 8 0;
#X connect 5 0 10 0;
#X connect 5 0 11 0;
#X connect 5 0 12 0;
#X connect 5 0 13 0;
#X connect 5 0 14 0;
#X connect 6 0 7 0;
#X connect 8 0 7 0;
#X connect 9 0 7 0;
#X connect 10 0 7 0;
#X connect 11 0 7 0;
#X connect 12 0 7 0;
#X connect 13 0 7 0;
#X connect 14 0 7 0;
#X connect 15 0 17 0;
#X connect 15 0 16 0;
#X connect 15 0 18 0;
#X connect 15 0 19 0;
#X connect 15 0 20 0;
#X connect 15 0 21 0;
#X connect 15 0 22 0;
#X connect 15 0 23 0;
#X connect 15 0 24 0;
#X connect 16 0 25 0;
#X connect 17 0 25 0;
#X connect 18 0 25 0;
#X connect 19 0 25 0;
#X connect 20 0 25 0;
#X connect 21 0 25 0;
#X connect 22 0 25 0;
#X connect 23 0 25 0;
#X connect 24 0 25 0;
#X connect 27 0 30 0;
#X connect 28 0 30 0;
#X connect 29 0 30 0;
#X connect 31 0 30 0;
#X connect 32 0 33 0;
#X connect 33 0 46 0;
#X connect 35 0 38 0;
#X connect 35 1 36 0;
#X connect 35 2 37 0;
#X connect 36 0 60 1;
#X connect 37 0 60 2;
#X connect 38 0 60 0;
#X connect 39 0 34 0;
#X connect 40 0 34 0;
#X connect 41 0 42 1;
#X connect 41 0 43 1;
#X connect 41 0 44 1;
#X connect 41 0 45 0;
#X connect 42 0 51 0;
#X connect 42 0 52 0;
#X connect 43 0 61 0;
#X connect 43 0 62 0;
#X connect 44 0 53 0;
#X connect 44 0 54 0;
#X connect 45 0 34 0;
#X connect 46 0 35 0;
#X connect 46 1 49 0;
#X connect 47 0 50 0;
#X connect 47 1 50 0;
#X connect 48 0 41 0;
#X connect 49 0 41 0;
#X connect 51 0 55 0;
#X connect 51 0 47 0;
#X connect 52 0 57 0;
#X connect 52 0 47 0;
#X connect 53 0 47 0;
#X connect 53 0 56 0;
#X connect 54 0 47 0;
#X connect 54 0 58 0;
#X connect 55 0 34 0;
#X connect 56 0 34 0;
#X connect 57 0 34 0;
#X connect 58 0 34 0;
#X connect 60 0 42 0;
#X connect 60 1 43 0;
#X connect 60 2 44 0;
#X connect 61 0 39 0;
#X connect 61 0 47 0;
#X connect 62 0 40 0;
#X connect 62 0 47 0;
