#N canvas -8 -8 1536 781 12;
#X obj 446 35 receive fromGUI;
#X obj 445 76 list trim;
#X obj 415 135 route /start;
#X obj 910 7 receive fromSystem;
#X obj 910 33 list trim;
#X obj 1006 748 send toGUI;
#X obj 910 91 unpack 0 0 0;
#X obj 956 147 / 3.1416;
#X obj 1039 147 / 3.1416;
#X obj 874 147 / 3.1416;
#X msg 834 628 list /maj2 \$1;
#X msg 1230 629 list /rel2 \$1;
#X floatatom 1001 371 5 0 1 1 gyroscope_gate - -, f 5;
#X obj 869 406 *;
#X obj 959 404 *;
#X obj 1080 408 *;
#N canvas 711 113 450 300 gateGyro 0;
#X obj 104 49 inlet;
#X obj 104 265 outlet;
#X msg 104 216 0;
#X obj 185 262 outlet;
#X msg 185 214 1;
#X obj 104 133 bng 15 250 50 0 empty empty empty 17 7 0 10 -262144
-1 -1;
#X obj 185 176 delay 500;
#X connect 0 0 5 0;
#X connect 2 0 1 0;
#X connect 4 0 3 0;
#X connect 5 0 6 0;
#X connect 5 0 2 0;
#X connect 6 0 4 0;
#X restore 1334 512 pd gateGyro;
#X obj 1001 343 r gateVal;
#X obj 1335 540 s gateVal;
#X obj 797 449 > 0.55;
#X obj 1043 455 < -0.55;
#X obj 1200 459 < -0.55;
#X obj 944 452 > 0.55;
#X msg 961 627 list /maj1 \$1;
#X msg 1103 629 list /rel3 \$1;
#X msg 1353 630 list /rel1 \$1;
#X obj 797 256 expr $f1*(abs($f1)>abs($f2))*(abs($f1)>abs($f3)) \;
$f2*(abs($f2)>abs($f1))*(abs($f2)>abs($f3)) \; $f3*(abs($f3)>abs($f1))*(abs($f3)>abs($f2))
\;;
#X obj 872 450 > 0.95;
#X obj 1121 457 < -0.95;
#X obj 711 586 r maj3;
#X obj 795 554 s maj3;
#X obj 834 588 r maj2;
#X obj 873 540 s maj2;
#X obj 961 587 r maj1;
#X obj 415 204 s gateVal;
#X msg 415 172 1;
#X obj 23 137 r maj1;
#X obj 1201 542 s maj1;
#N canvas 249 148 369 446 synthmaj1 0;
#X msg 94 229 60;
#X obj 94 262 mtof;
#X obj 150 383 dac~;
#X obj 177 295 vline~;
#X msg 177 260 1 10 \, 0 200 50;
#X obj 151 334 *~;
#X obj 80 44 inlet;
#X obj 101 297 osc~;
#X connect 0 0 1 0;
#X connect 1 0 7 0;
#X connect 3 0 5 1;
#X connect 4 0 3 0;
#X connect 5 0 2 0;
#X connect 5 0 2 1;
#X connect 6 0 0 0;
#X connect 6 0 4 0;
#X connect 7 0 5 0;
#X restore 23 165 pd synthmaj1;
#X obj 23 195 r maj2;
#N canvas 93 121 450 301 synthmaj2 0;
#X obj 88 144 mtof;
#X obj 114 176 osc~;
#X obj 144 265 dac~;
#X obj 171 177 vline~;
#X msg 171 142 1 10 \, 0 200 50;
#X obj 145 216 *~;
#X obj 80 44 inlet;
#X msg 88 111 65;
#X connect 0 0 1 0;
#X connect 1 0 5 0;
#X connect 3 0 5 1;
#X connect 4 0 3 0;
#X connect 5 0 2 0;
#X connect 5 0 2 1;
#X connect 6 0 7 0;
#X connect 6 0 4 0;
#X connect 7 0 0 0;
#X restore 23 221 pd synthmaj2;
#X obj 23 253 r maj3;
#N canvas 93 121 450 301 synthmaj3 0;
#X obj 88 144 mtof;
#X obj 114 176 osc~;
#X obj 144 265 dac~;
#X obj 171 177 vline~;
#X msg 171 142 1 10 \, 0 200 50;
#X obj 145 216 *~;
#X obj 80 44 inlet;
#X msg 88 111 67;
#X connect 0 0 1 0;
#X connect 1 0 5 0;
#X connect 3 0 5 1;
#X connect 4 0 3 0;
#X connect 5 0 2 0;
#X connect 5 0 2 1;
#X connect 6 0 7 0;
#X connect 6 0 4 0;
#X connect 7 0 0 0;
#X restore 23 279 pd synthmaj3;
#X obj 23 309 r rel1;
#N canvas 93 121 450 301 synthrel1 0;
#X obj 88 144 mtof;
#X obj 114 176 osc~;
#X obj 144 265 dac~;
#X obj 171 177 vline~;
#X msg 171 142 1 10 \, 0 200 50;
#X obj 145 216 *~;
#X obj 80 44 inlet;
#X msg 88 111 57;
#X connect 0 0 1 0;
#X connect 1 0 5 0;
#X connect 3 0 5 1;
#X connect 4 0 3 0;
#X connect 5 0 2 0;
#X connect 5 0 2 1;
#X connect 6 0 7 0;
#X connect 6 0 4 0;
#X connect 7 0 0 0;
#X restore 23 335 pd synthrel1;
#X obj 22 365 r rel2;
#N canvas 93 121 450 301 synthrel2 0;
#X obj 88 144 mtof;
#X obj 114 176 osc~;
#X obj 144 265 dac~;
#X obj 171 177 vline~;
#X msg 171 142 1 10 \, 0 200 50;
#X obj 145 216 *~;
#X obj 80 44 inlet;
#X msg 88 111 62;
#X connect 0 0 1 0;
#X connect 1 0 5 0;
#X connect 3 0 5 1;
#X connect 4 0 3 0;
#X connect 5 0 2 0;
#X connect 5 0 2 1;
#X connect 6 0 7 0;
#X connect 6 0 4 0;
#X connect 7 0 0 0;
#X restore 22 391 pd synthrel2;
#X obj 22 420 r rel3;
#N canvas 93 121 450 301 synthrel3 0;
#X obj 88 144 mtof;
#X obj 114 176 osc~;
#X obj 144 265 dac~;
#X obj 171 177 vline~;
#X msg 171 142 1 10 \, 0 200 50;
#X obj 145 216 *~;
#X obj 80 44 inlet;
#X msg 88 111 64;
#X connect 0 0 1 0;
#X connect 1 0 5 0;
#X connect 3 0 5 1;
#X connect 4 0 3 0;
#X connect 5 0 2 0;
#X connect 5 0 2 1;
#X connect 6 0 7 0;
#X connect 6 0 4 0;
#X connect 7 0 0 0;
#X restore 23 446 pd synthrel3;
#X obj 946 539 s rel1;
#X obj 1353 591 r rel1;
#X obj 1044 541 s rel3;
#X obj 1103 591 r rel3;
#X obj 1122 541 s rel2;
#X obj 1230 591 r rel2;
#X obj 1039 181 s normYaw;
#X obj 874 189 s normRoll;
#X obj 956 205 s normPitch;
#X obj 910 62 route /gyro /accel;
#X obj 1204 95 unpack 0 0 0;
#X obj 1238 159 s normX;
#X obj 1314 158 s normY;
#X obj 1394 160 s normZ;
#X obj 224 551 r normRoll;
#X obj 318 551 r normPitch;
#X obj 420 551 r normYaw;
#X obj 8 550 r normX;
#X obj 74 550 r normY;
#X obj 140 547 r normZ;
#X obj 416 701 send toGUI;
#X obj 280 603 pack 0 0 0;
#X obj 36 605 pack 0 0 0;
#X msg 280 639 list /normGyro \$1 \$2 \$3;
#X msg 36 654 list /normAcc \$1 \$2 \$3;
#X obj 530 561 r maj3;
#X msg 710 628 list /maj3 \$1;
#X obj 797 480 select 1;
#X obj 877 481 select 1;
#X obj 959 482 select 1;
#X obj 1043 485 select 1;
#X obj 1126 489 select 1;
#X obj 1204 489 select 1;
#X msg 796 519 1;
#X msg 874 509 1;
#X msg 949 512 1;
#X msg 1045 513 1;
#X msg 1125 516 1;
#X msg 1205 516 1;
#X msg 530 629 list /log \$1;
#X connect 0 0 1 0;
#X connect 1 0 2 0;
#X connect 2 0 35 0;
#X connect 3 0 4 0;
#X connect 4 0 58 0;
#X connect 6 0 9 0;
#X connect 6 1 7 0;
#X connect 6 2 8 0;
#X connect 7 0 26 1;
#X connect 7 0 57 0;
#X connect 8 0 26 2;
#X connect 8 0 55 0;
#X connect 9 0 26 0;
#X connect 9 0 56 0;
#X connect 10 0 5 0;
#X connect 11 0 5 0;
#X connect 12 0 13 1;
#X connect 12 0 14 1;
#X connect 12 0 15 1;
#X connect 13 0 19 0;
#X connect 13 0 20 0;
#X connect 14 0 27 0;
#X connect 14 0 28 0;
#X connect 15 0 21 0;
#X connect 15 0 22 0;
#X connect 16 0 18 0;
#X connect 16 1 18 0;
#X connect 17 0 12 0;
#X connect 19 0 76 0;
#X connect 20 0 79 0;
#X connect 21 0 81 0;
#X connect 22 0 78 0;
#X connect 23 0 5 0;
#X connect 24 0 5 0;
#X connect 25 0 5 0;
#X connect 26 0 13 0;
#X connect 26 1 14 0;
#X connect 26 2 15 0;
#X connect 27 0 77 0;
#X connect 28 0 80 0;
#X connect 29 0 75 0;
#X connect 31 0 10 0;
#X connect 33 0 23 0;
#X connect 35 0 34 0;
#X connect 36 0 38 0;
#X connect 39 0 40 0;
#X connect 41 0 42 0;
#X connect 43 0 44 0;
#X connect 45 0 46 0;
#X connect 47 0 48 0;
#X connect 50 0 25 0;
#X connect 52 0 24 0;
#X connect 54 0 11 0;
#X connect 58 0 6 0;
#X connect 58 1 59 0;
#X connect 59 0 60 0;
#X connect 59 1 61 0;
#X connect 59 2 62 0;
#X connect 63 0 70 0;
#X connect 64 0 70 1;
#X connect 65 0 70 2;
#X connect 66 0 71 0;
#X connect 67 0 71 1;
#X connect 68 0 71 2;
#X connect 70 0 72 0;
#X connect 71 0 73 0;
#X connect 72 0 69 0;
#X connect 73 0 69 0;
#X connect 74 0 88 0;
#X connect 75 0 5 0;
#X connect 76 0 82 0;
#X connect 76 0 16 0;
#X connect 77 0 83 0;
#X connect 77 0 16 0;
#X connect 78 0 84 0;
#X connect 78 0 16 0;
#X connect 79 0 85 0;
#X connect 79 0 16 0;
#X connect 80 0 86 0;
#X connect 80 0 16 0;
#X connect 81 0 87 0;
#X connect 81 0 16 0;
#X connect 82 0 30 0;
#X connect 83 0 32 0;
#X connect 84 0 49 0;
#X connect 85 0 51 0;
#X connect 86 0 53 0;
#X connect 87 0 37 0;
#X connect 88 0 69 0;
