#N canvas 0 50 1536 781 12;
#X obj 64 43 receive fromGUI;
#X obj 63 84 list trim;
#X obj 147 129 route /maj1 /maj2 /maj3;
#X obj 335 129 route /rel1 /rel2 /rel3;
#X obj 550 132 route /sup1 /sup2 /sup3;
#X obj 35 129 route /start;
#X msg 57 209 list /start enable 0;
#X obj 217 308 send toGUI;
#X msg 63 276 list /maj3 enable 0;
#X msg 59 240 list /maj2 enable 0;
#X msg 63 317 list /rel2 enable 0;
#X msg 61 354 list /rel3 enable 0;
#X msg 58 391 list /sup1 enable 0;
#X msg 53 426 list /sup2 enable 0;
#X msg 53 464 list /sup3 enable 0;
#X obj 636 486 receive clearAll;
#X msg 633 559 list /maj2 enable 0;
#X msg 643 530 list /maj1 enable 0;
#X msg 645 588 list /maj3 enable 0;
#X msg 622 614 list /rel1 enable 0;
#X msg 644 641 list /rel2 enable 0;
#X msg 624 667 list /rel3 enable 0;
#X msg 654 690 list /sup1 enable 0;
#X msg 611 710 list /sup2 enable 0;
#X msg 680 733 list /sup3 enable 0;
#X obj 532 643 send toGUI;
#X obj 354 222 send clearAll;
#X msg 356 261 list /maj2 enable 1;
#X msg 347 300 list /maj3 enable 1;
#X msg 364 341 list /rel1 enable 1;
#X obj 348 415 send toGUI;
#X msg 373 375 list /sup3 enable 1;
#X obj 897 87 receive fromSystem;
#X obj 900 139 list trim;
#X obj 908 531 send toGUI;
#X msg 906 479 list /myLabel \$1 \$2 \$3;
#X obj 895 197 route /gyro;
#X obj 886 248 unpack 0 0 0;
#X obj 868 304 + 3.1416;
#X obj 959 304 + 3.1416;
#X obj 1066 300 + 3.1416;
#X obj 863 341 / 6.2832;
#X obj 959 342 / 6.2832;
#X obj 1068 348 / 6.2832;
#X obj 931 435 pack 0 0 0;
#X obj 874 385 > 0.75;
#X obj 961 387 > 0.75;
#X obj 1066 390 > 0.75;
#X connect 0 0 1 0;
#X connect 1 0 2 0;
#X connect 1 0 3 0;
#X connect 1 0 4 0;
#X connect 1 0 5 0;
#X connect 2 0 26 0;
#X connect 2 0 27 0;
#X connect 2 0 28 0;
#X connect 2 0 29 0;
#X connect 2 0 31 0;
#X connect 5 0 6 0;
#X connect 5 0 9 0;
#X connect 5 0 8 0;
#X connect 5 0 10 0;
#X connect 5 0 11 0;
#X connect 5 0 12 0;
#X connect 5 0 13 0;
#X connect 5 0 14 0;
#X connect 6 0 7 0;
#X connect 8 0 7 0;
#X connect 9 0 7 0;
#X connect 10 0 7 0;
#X connect 11 0 7 0;
#X connect 12 0 7 0;
#X connect 13 0 7 0;
#X connect 14 0 7 0;
#X connect 15 0 17 0;
#X connect 15 0 16 0;
#X connect 15 0 18 0;
#X connect 15 0 19 0;
#X connect 15 0 20 0;
#X connect 15 0 21 0;
#X connect 15 0 22 0;
#X connect 15 0 23 0;
#X connect 15 0 24 0;
#X connect 16 0 25 0;
#X connect 17 0 25 0;
#X connect 18 0 25 0;
#X connect 19 0 25 0;
#X connect 20 0 25 0;
#X connect 21 0 25 0;
#X connect 22 0 25 0;
#X connect 23 0 25 0;
#X connect 24 0 25 0;
#X connect 27 0 30 0;
#X connect 28 0 30 0;
#X connect 29 0 30 0;
#X connect 31 0 30 0;
#X connect 32 0 33 0;
#X connect 33 0 36 0;
#X connect 35 0 34 0;
#X connect 36 0 37 0;
#X connect 37 0 38 0;
#X connect 37 1 39 0;
#X connect 37 2 40 0;
#X connect 38 0 41 0;
#X connect 39 0 42 0;
#X connect 40 0 43 0;
#X connect 41 0 45 0;
#X connect 42 0 46 0;
#X connect 43 0 47 0;
#X connect 44 0 35 0;
#X connect 45 0 44 0;
#X connect 46 0 44 1;
#X connect 47 0 44 2;
