#N canvas 66 29 1536 781 12;
#X obj 702 6 receive fromGUI;
#X obj 702 37 list trim;
#X obj 702 72 route /start;
#X obj 910 7 receive fromSystem;
#X obj 910 33 list trim;
#X obj 616 702 send toGUI;
#X obj 910 91 unpack 0 0 0;
#X obj 956 147 / 3.1416;
#X obj 1039 147 / 3.1416;
#X obj 874 147 / 3.1416;
#X floatatom 1001 371 5 0 1 1 gyroscope_gate - -, f 5;
#X obj 869 406 *;
#X obj 959 404 *;
#X obj 1080 408 *;
#N canvas 711 113 450 300 gateGyro 0;
#X obj 104 49 inlet;
#X obj 104 265 outlet;
#X msg 104 216 0;
#X obj 185 262 outlet;
#X msg 185 214 1;
#X obj 104 133 bng 15 250 50 0 empty empty empty 17 7 0 10 -262144
-1 -1;
#X obj 185 176 delay 500;
#X connect 0 0 5 0;
#X connect 2 0 1 0;
#X connect 4 0 3 0;
#X connect 5 0 6 0;
#X connect 5 0 2 0;
#X connect 6 0 4 0;
#X restore 1334 512 pd gateGyro;
#X obj 1335 540 s gateVal;
#X obj 797 449 > 0.55;
#X obj 1043 455 < -0.55;
#X obj 1200 459 < -0.55;
#X obj 944 452 > 0.55;
#X obj 797 256 expr $f1*(abs($f1)>abs($f2))*(abs($f1)>abs($f3)) \;
$f2*(abs($f2)>abs($f1))*(abs($f2)>abs($f3)) \; $f3*(abs($f3)>abs($f1))*(abs($f3)>abs($f2))
\;;
#X obj 872 450 > 0.95;
#X obj 1121 457 < -0.95;
#X obj 702 134 s gateVal;
#X obj 910 62 route /gyro /accel;
#X obj 1204 95 unpack 0 0 0;
#X obj 416 701 send toGUI;
#X obj 280 603 pack 0 0 0;
#X obj 36 605 pack 0 0 0;
#X msg 280 639 list /normGyro \$1 \$2 \$3;
#X msg 36 654 list /normAcc \$1 \$2 \$3;
#X obj 797 480 select 1;
#X obj 877 481 select 1;
#X obj 959 482 select 1;
#X obj 1043 485 select 1;
#X obj 1126 489 select 1;
#X obj 1204 489 select 1;
#N canvas 27 6 1536 806 automata 1;
#X obj 334 220 route 1;
#X obj 469 220 route 2 3;
#X obj 622 221 route 4 5 6 7;
#X obj 784 221 route 8 9 10 11 12 13 14 15;
#X msg 334 280 2;
#X msg 360 279 3;
#X msg 469 279 4;
#X msg 495 279 5;
#X obj 334 252 sel 1 2;
#X obj 469 252 sel 3 4;
#X obj 503 332 sel 3 4;
#X msg 503 362 6;
#X msg 529 362 7;
#X obj 622 262 sel 5 6;
#X msg 622 292 8;
#X msg 648 292 9;
#X obj 643 333 sel 5 6;
#X msg 643 363 10;
#X msg 669 363 11;
#X obj 667 403 sel 5 6;
#X msg 667 433 12;
#X msg 693 433 13;
#X obj 697 467 sel 5 6;
#X msg 697 497 14;
#X msg 723 497 15;
#X obj 784 256 sel 1 2;
#X obj 807 316 sel 1 2;
#X obj 830 373 sel 1 2;
#X obj 854 429 sel 1 2;
#X obj 886 489 sel 1 2;
#X obj 906 546 sel 1 2;
#X obj 925 605 sel 1 2;
#X obj 953 664 sel 1 2;
#X obj 1061 223 route 16 17 18 19;
#X msg 784 286 17;
#X msg 810 286 18;
#X msg 807 346 16;
#X msg 833 346 18;
#X msg 831 403 16;
#X msg 856 403 18;
#X msg 854 459 17;
#X msg 880 459 18;
#X obj 1081 287 sel 3 4;
#X obj 1104 352 sel 3 4;
#X obj 1126 428 sel 3 4;
#X obj 1159 492 sel 3 4;
#X msg 1081 317 4;
#X msg 1107 317 5;
#X msg 1102 388 4;
#X msg 1128 388 5;
#X msg 1126 458 6;
#X msg 1152 458 7;
#X msg 1156 522 6;
#X msg 1182 522 7;
#X obj 1081 580 s newstate;
#X obj 337 329 s newstate;
#X obj 472 416 s newstate;
#X obj 621 589 s newstate;
#X obj 768 736 s newstate;
#X floatatom 245 193 5 0 0 0 - - -, f 5;
#X obj 239 129 r newstate;
#X obj 239 219 pack 0 0;
#X obj 261 49 inlet;
#X obj 261 81 t b f;
#X msg 239 157 set \$1;
#X obj 285 598 r newstate;
#X obj 287 652 outlet;
#X obj 471 57 inlet;
#X obj 471 91 s newstate;
#X msg 886 519 17;
#X msg 912 519 19;
#X msg 906 576 17;
#X msg 932 576 18;
#X msg 925 635 17;
#X msg 951 635 18;
#X msg 953 694 17;
#X msg 979 694 19;
#X connect 0 0 8 0;
#X connect 0 1 1 0;
#X connect 1 0 9 0;
#X connect 1 1 10 0;
#X connect 1 2 2 0;
#X connect 2 0 13 0;
#X connect 2 1 16 0;
#X connect 2 2 19 0;
#X connect 2 3 22 0;
#X connect 2 4 3 0;
#X connect 3 0 25 0;
#X connect 3 1 26 0;
#X connect 3 2 27 0;
#X connect 3 3 28 0;
#X connect 3 4 29 0;
#X connect 3 5 30 0;
#X connect 3 6 31 0;
#X connect 3 7 32 0;
#X connect 3 8 33 0;
#X connect 4 0 55 0;
#X connect 5 0 55 0;
#X connect 6 0 56 0;
#X connect 7 0 56 0;
#X connect 8 0 4 0;
#X connect 8 1 5 0;
#X connect 9 0 6 0;
#X connect 9 1 7 0;
#X connect 10 0 11 0;
#X connect 10 1 12 0;
#X connect 11 0 56 0;
#X connect 12 0 56 0;
#X connect 13 0 14 0;
#X connect 13 1 15 0;
#X connect 14 0 57 0;
#X connect 15 0 57 0;
#X connect 16 0 17 0;
#X connect 16 1 18 0;
#X connect 17 0 57 0;
#X connect 18 0 57 0;
#X connect 19 0 20 0;
#X connect 19 1 21 0;
#X connect 20 0 57 0;
#X connect 21 0 57 0;
#X connect 22 0 23 0;
#X connect 22 1 24 0;
#X connect 23 0 57 0;
#X connect 24 0 57 0;
#X connect 25 0 34 0;
#X connect 25 1 35 0;
#X connect 26 0 36 0;
#X connect 26 1 37 0;
#X connect 27 0 38 0;
#X connect 27 1 39 0;
#X connect 28 0 40 0;
#X connect 28 1 41 0;
#X connect 29 0 69 0;
#X connect 29 1 70 0;
#X connect 30 0 71 0;
#X connect 30 1 72 0;
#X connect 31 0 73 0;
#X connect 31 1 74 0;
#X connect 32 0 75 0;
#X connect 32 1 76 0;
#X connect 33 0 42 0;
#X connect 33 1 43 0;
#X connect 33 2 44 0;
#X connect 33 3 45 0;
#X connect 34 0 58 0;
#X connect 35 0 58 0;
#X connect 36 0 58 0;
#X connect 37 0 58 0;
#X connect 38 0 58 0;
#X connect 39 0 58 0;
#X connect 40 0 58 0;
#X connect 41 0 58 0;
#X connect 42 0 46 0;
#X connect 42 1 47 0;
#X connect 43 0 48 0;
#X connect 43 1 49 0;
#X connect 44 0 50 0;
#X connect 44 1 51 0;
#X connect 45 0 52 0;
#X connect 45 1 53 0;
#X connect 46 0 54 0;
#X connect 47 0 54 0;
#X connect 48 0 54 0;
#X connect 49 0 54 0;
#X connect 50 0 54 0;
#X connect 51 0 54 0;
#X connect 52 0 54 0;
#X connect 53 0 54 0;
#X connect 59 0 61 0;
#X connect 60 0 64 0;
#X connect 61 0 0 0;
#X connect 62 0 63 0;
#X connect 63 0 59 0;
#X connect 63 1 61 1;
#X connect 64 0 59 0;
#X connect 65 0 66 0;
#X connect 67 0 68 0;
#X connect 69 0 58 0;
#X connect 70 0 58 0;
#X connect 71 0 58 0;
#X connect 72 0 58 0;
#X connect 73 0 58 0;
#X connect 74 0 58 0;
#X connect 75 0 58 0;
#X connect 76 0 58 0;
#X restore 337 123 pd automata;
#X obj 544 414 loadbang;
#X msg 544 452 0;
#X obj 841 220 v normRoll;
#X obj 993 204 v normPitch;
#X obj 1165 208 v normYaw;
#X obj 1181 132 v normX;
#X obj 1250 132 v normY;
#X obj 1315 133 v normZ;
#X obj 420 551 v normYaw;
#X obj 318 551 v normPitch;
#X obj 224 551 v normRoll;
#X obj 140 547 v normZ;
#X obj 74 550 v normY;
#X obj 8 550 v normX;
#X obj 1001 343 r gateVal;
#X obj 544 490 s gateVal;
#X obj 983 600 s command;
#X msg 1045 513 6;
#X msg 1205 516 1;
#X obj 288 490 metro 250;
#X obj 804 189 t f f;
#X obj 956 174 t f f;
#X obj 1093 178 t f f;
#X obj 337 92 r command;
#X msg 949 512 2;
#X msg 874 509 3;
#X msg 797 515 5;
#X msg 1126 515 4;
#X obj 337 157 s state;
#X obj 146 281 r state;
#N canvas -56 15 1536 781 synth 1;
#X obj 665 711 dac~;
#X obj 673 610 vline~;
#X obj 84 50 inlet;
#X msg 201 183 60 64 67 72;
#X msg 306 183 57 60 64 69;
#X obj 201 142 select 2 3;
#X obj 429 140 select 4 5 6 7;
#X msg 429 184 60 65 69 72;
#X msg 539 183 60 62 65 69;
#X obj 766 138 select 8 9 10 11 12 13 14 15;
#X msg 766 182 62 65 67 71;
#X msg 881 183 60 62 66 69;
#X msg 881 219 59 62 65 67;
#X msg 428 222 57 60 65 69;
#X msg 879 263 59 62 64 68;
#X obj 800 575 mtof;
#X obj 674 659 *~;
#X obj 84 103 change 1;
#X obj 485 423 f;
#X obj 521 423 + 1;
#X obj 620 514 f;
#X obj 669 512 f;
#X obj 714 511 f;
#X obj 761 512 f;
#X obj 804 512 f;
#X obj 843 512 f;
#X obj 636 467 select 0 1 2 3 4 5;
#X obj 483 499 t f f;
#X obj 483 460 mod 6;
#X obj 650 334 unpack 0 0 0 0;
#X obj 1150 136 select 16 17 18 19;
#X msg 1188 201 60 64 67 72;
#X msg 1220 174 57 60 64 69;
#X obj 485 387 bng 15 250 50 0 empty empty empty 17 7 0 10 -262144
-1 -1;
#X floatatom 415 561 5 0 0 0 - - -, f 5;
#X msg 399 391 0;
#X obj 342 444 select 5;
#X obj 485 354 metro 83;
#X msg 768 261 57 61 64 67;
#X msg 539 221 57 62 65 69;
#X obj 230 226 s chord;
#X obj 474 259 s chord;
#X obj 863 307 s chord;
#X obj 1213 254 s chord;
#X obj 613 275 r chord;
#X msg 673 574 1 50 \, 0 83 50;
#X obj 613 304 t b l;
#X obj 1130 242 + 7;
#X obj 1130 274 mod 12;
#X obj 1093 168 t b b;
#X obj 1130 206 v key;
#X obj 1240 328 v key;
#X obj 1382 276 mod 12;
#X obj 1345 170 t b b;
#X obj 1382 208 v key;
#X obj 1382 244 + 5;
#X obj 203 53 inlet;
#X obj 204 109 v key;
#X obj 1159 307 t b f;
#X obj 1328 304 t b f;
#X obj 800 614 phasor~;
#X obj 650 365 expr $f1+key \; $f2+key \; $f3+key \; $f4+key;
#X obj 203 78 t b f;
#X connect 1 0 16 0;
#X connect 2 0 17 0;
#X connect 3 0 40 0;
#X connect 4 0 40 0;
#X connect 5 0 3 0;
#X connect 5 1 4 0;
#X connect 5 2 6 0;
#X connect 6 0 7 0;
#X connect 6 1 8 0;
#X connect 6 2 13 0;
#X connect 6 3 39 0;
#X connect 6 4 9 0;
#X connect 7 0 41 0;
#X connect 8 0 41 0;
#X connect 9 0 10 0;
#X connect 9 1 11 0;
#X connect 9 2 11 0;
#X connect 9 3 12 0;
#X connect 9 4 38 0;
#X connect 9 5 14 0;
#X connect 9 6 14 0;
#X connect 9 7 38 0;
#X connect 9 8 30 0;
#X connect 10 0 42 0;
#X connect 11 0 42 0;
#X connect 12 0 42 0;
#X connect 13 0 41 0;
#X connect 14 0 42 0;
#X connect 15 0 60 0;
#X connect 16 0 0 0;
#X connect 16 0 0 1;
#X connect 17 0 5 0;
#X connect 18 0 19 0;
#X connect 18 0 28 0;
#X connect 19 0 18 1;
#X connect 20 0 15 0;
#X connect 20 0 45 0;
#X connect 21 0 15 0;
#X connect 21 0 45 0;
#X connect 22 0 15 0;
#X connect 22 0 45 0;
#X connect 23 0 15 0;
#X connect 23 0 45 0;
#X connect 24 0 15 0;
#X connect 24 0 45 0;
#X connect 25 0 15 0;
#X connect 25 0 45 0;
#X connect 26 0 20 0;
#X connect 26 1 21 0;
#X connect 26 2 22 0;
#X connect 26 3 23 0;
#X connect 26 4 24 0;
#X connect 26 5 25 0;
#X connect 27 0 34 0;
#X connect 27 0 36 0;
#X connect 27 1 26 0;
#X connect 28 0 27 0;
#X connect 29 0 61 0;
#X connect 29 1 61 1;
#X connect 29 2 61 2;
#X connect 29 3 61 3;
#X connect 30 0 49 0;
#X connect 30 1 31 0;
#X connect 30 2 32 0;
#X connect 30 3 53 0;
#X connect 31 0 43 0;
#X connect 32 0 43 0;
#X connect 33 0 18 0;
#X connect 35 0 18 1;
#X connect 35 0 37 0;
#X connect 36 0 35 0;
#X connect 37 0 33 0;
#X connect 38 0 42 0;
#X connect 39 0 41 0;
#X connect 44 0 46 0;
#X connect 45 0 1 0;
#X connect 46 0 37 0;
#X connect 46 1 29 0;
#X connect 47 0 48 0;
#X connect 48 0 58 0;
#X connect 49 0 31 0;
#X connect 49 1 50 0;
#X connect 50 0 47 0;
#X connect 52 0 59 0;
#X connect 53 0 32 0;
#X connect 53 1 54 0;
#X connect 54 0 55 0;
#X connect 55 0 52 0;
#X connect 56 0 62 0;
#X connect 58 0 51 0;
#X connect 58 1 51 0;
#X connect 59 0 51 0;
#X connect 59 1 51 0;
#X connect 60 0 16 1;
#X connect 61 0 20 1;
#X connect 61 1 21 1;
#X connect 61 1 25 1;
#X connect 61 2 22 1;
#X connect 61 2 24 1;
#X connect 61 3 23 1;
#X connect 62 0 57 0;
#X connect 62 1 57 0;
#X restore 146 319 pd synth;
#X obj 615 625 r state;
#X msg 700 102 1;
#X msg 264 301 0;
#X obj 819 632 r command;
#X msg 615 669 list /state state: \$1;
#X msg 819 668 list /command command: \$1;
#X obj 819 708 send toGUI;
#X connect 0 0 1 0;
#X connect 1 0 2 0;
#X connect 2 0 70 0;
#X connect 2 0 71 0;
#X connect 3 0 4 0;
#X connect 4 0 24 0;
#X connect 6 0 9 0;
#X connect 6 1 7 0;
#X connect 6 2 8 0;
#X connect 7 0 59 0;
#X connect 8 0 60 0;
#X connect 9 0 58 0;
#X connect 10 0 11 1;
#X connect 10 0 12 1;
#X connect 10 0 13 1;
#X connect 11 0 16 0;
#X connect 11 0 17 0;
#X connect 12 0 21 0;
#X connect 12 0 22 0;
#X connect 13 0 18 0;
#X connect 13 0 19 0;
#X connect 14 0 15 0;
#X connect 14 1 15 0;
#X connect 16 0 31 0;
#X connect 17 0 34 0;
#X connect 18 0 36 0;
#X connect 19 0 33 0;
#X connect 20 0 11 0;
#X connect 20 1 12 0;
#X connect 20 2 13 0;
#X connect 21 0 32 0;
#X connect 22 0 35 0;
#X connect 24 0 6 0;
#X connect 24 1 25 0;
#X connect 25 0 43 0;
#X connect 25 1 44 0;
#X connect 25 2 45 0;
#X connect 27 0 29 0;
#X connect 28 0 30 0;
#X connect 29 0 26 0;
#X connect 30 0 26 0;
#X connect 31 0 64 0;
#X connect 31 0 14 0;
#X connect 32 0 63 0;
#X connect 32 0 14 0;
#X connect 33 0 62 0;
#X connect 33 0 14 0;
#X connect 34 0 55 0;
#X connect 34 0 14 0;
#X connect 35 0 65 0;
#X connect 35 0 14 0;
#X connect 36 0 56 0;
#X connect 36 0 14 0;
#X connect 37 0 66 0;
#X connect 38 0 39 0;
#X connect 38 0 57 0;
#X connect 39 0 53 0;
#X connect 46 0 27 2;
#X connect 47 0 27 1;
#X connect 48 0 27 0;
#X connect 49 0 28 2;
#X connect 50 0 28 1;
#X connect 51 0 28 0;
#X connect 52 0 10 0;
#X connect 55 0 54 0;
#X connect 56 0 54 0;
#X connect 57 0 51 0;
#X connect 57 0 50 0;
#X connect 57 0 49 0;
#X connect 57 0 48 0;
#X connect 57 0 47 0;
#X connect 57 0 46 0;
#X connect 58 0 20 0;
#X connect 58 1 40 0;
#X connect 59 0 20 1;
#X connect 59 1 41 0;
#X connect 60 0 20 2;
#X connect 60 1 42 0;
#X connect 61 0 37 0;
#X connect 62 0 54 0;
#X connect 63 0 54 0;
#X connect 64 0 54 0;
#X connect 65 0 54 0;
#X connect 67 0 68 0;
#X connect 69 0 73 0;
#X connect 70 0 23 0;
#X connect 70 0 37 1;
#X connect 71 0 68 1;
#X connect 72 0 74 0;
#X connect 73 0 5 0;
#X connect 74 0 75 0;
