#N canvas 0 23 1536 781 12;
#X obj 1255 89 receive fromGUI;
#X obj 1255 120 list trim;
#X obj 53 51 receive fromSystem;
#X obj 53 77 list trim;
#X obj 53 106 route /gyro /accel;
#N canvas 0 22 1536 781 automata 0;
#X obj 126 188 route 1;
#X obj 294 191 route 2 3;
#X obj 484 191 route 4 5 6 7;
#X obj 700 190 route 8 9 10 11 12 13 14 15;
#X msg 126 248 2;
#X msg 152 247 3;
#X msg 294 252 4, f 1;
#X msg 320 252 5, f 1;
#X obj 126 220 sel 1 2;
#X obj 294 223 sel 3 4;
#X obj 327 284 sel 3 4;
#X msg 327 314 6, f 1;
#X msg 353 314 7, f 1;
#X obj 484 232 sel 5 6;
#X msg 484 262 8, f 1;
#X msg 510 262 9, f 1;
#X obj 509 303 sel 5 6;
#X msg 509 333 10, f 2;
#X msg 535 333 11, f 2;
#X obj 529 373 sel 5 6;
#X msg 529 403 12, f 2;
#X msg 555 403 13, f 2;
#X obj 559 437 sel 5 6;
#X msg 559 467 14, f 2;
#X msg 585 467 15, f 2;
#X obj 700 225 sel 1 2;
#X obj 739 285 sel 1 2;
#X obj 812 229 sel 1 2;
#X obj 844 294 sel 1 2;
#X msg 700 255 17, f 2;
#X msg 726 255 18, f 2;
#X msg 739 315 16, f 2;
#X msg 765 315 18, f 2;
#X obj 1017 242 sel 3 4;
#X obj 1094 243 sel 3 4;
#X msg 1017 272 4, f 1;
#X msg 1043 272 5, f 1;
#X msg 1094 273 6, f 1;
#X msg 1120 273 7, f 1;
#X obj 126 153 pack 0 0;
#X obj 126 57 inlet;
#X obj 126 89 t b f;
#X obj 483 657 outlet;
#X obj 202 55 inlet;
#X obj 202 89 v state;
#X obj 126 119 v state;
#X obj 126 323 v state;
#X obj 294 421 v state;
#X obj 483 559 v state;
#X obj 126 284 t b f;
#X obj 294 383 t b f;
#X obj 483 510 t b f;
#X obj 700 435 t b f;
#X obj 700 477 v state;
#X obj 1017 333 t b f;
#X obj 1017 372 v state;
#X obj 1017 191 route 16 17 18 19 20 21;
#X msg 812 259 19, f 2;
#X msg 838 259 20, f 2;
#X msg 844 324 19, f 2;
#X msg 870 324 21, f 12;
#X connect 0 0 8 0;
#X connect 0 1 1 0;
#X connect 1 0 9 0;
#X connect 1 1 10 0;
#X connect 1 2 2 0;
#X connect 2 0 13 0;
#X connect 2 1 16 0;
#X connect 2 2 19 0;
#X connect 2 3 22 0;
#X connect 2 4 3 0;
#X connect 3 0 25 0;
#X connect 3 1 26 0;
#X connect 3 2 26 0;
#X connect 3 3 25 0;
#X connect 3 4 27 0;
#X connect 3 5 28 0;
#X connect 3 6 28 0;
#X connect 3 7 27 0;
#X connect 3 8 56 0;
#X connect 4 0 49 0;
#X connect 5 0 49 0;
#X connect 6 0 50 0;
#X connect 7 0 50 0;
#X connect 8 0 4 0;
#X connect 8 1 5 0;
#X connect 9 0 6 0;
#X connect 9 1 7 0;
#X connect 10 0 11 0;
#X connect 10 1 12 0;
#X connect 11 0 50 0;
#X connect 12 0 50 0;
#X connect 13 0 14 0;
#X connect 13 1 15 0;
#X connect 14 0 51 0;
#X connect 15 0 51 0;
#X connect 16 0 17 0;
#X connect 16 1 18 0;
#X connect 17 0 51 0;
#X connect 18 0 51 0;
#X connect 19 0 20 0;
#X connect 19 1 21 0;
#X connect 20 0 51 0;
#X connect 21 0 51 0;
#X connect 22 0 23 0;
#X connect 22 1 24 0;
#X connect 23 0 51 0;
#X connect 24 0 51 0;
#X connect 25 0 29 0;
#X connect 25 1 30 0;
#X connect 26 0 31 0;
#X connect 26 1 32 0;
#X connect 27 0 57 0;
#X connect 27 1 58 0;
#X connect 28 0 59 0;
#X connect 28 1 60 0;
#X connect 29 0 52 0;
#X connect 30 0 52 0;
#X connect 31 0 52 0;
#X connect 32 0 52 0;
#X connect 33 0 35 0;
#X connect 33 1 36 0;
#X connect 34 0 37 0;
#X connect 34 1 38 0;
#X connect 35 0 54 0;
#X connect 36 0 54 0;
#X connect 37 0 54 0;
#X connect 38 0 54 0;
#X connect 39 0 0 0;
#X connect 40 0 41 0;
#X connect 41 0 45 0;
#X connect 41 1 39 1;
#X connect 43 0 44 0;
#X connect 45 0 39 0;
#X connect 46 0 42 0;
#X connect 47 0 42 0;
#X connect 48 0 42 0;
#X connect 49 0 46 0;
#X connect 49 1 46 0;
#X connect 50 0 47 0;
#X connect 50 1 47 0;
#X connect 51 0 48 0;
#X connect 51 1 48 0;
#X connect 52 0 53 0;
#X connect 52 1 53 0;
#X connect 53 0 42 0;
#X connect 54 0 55 0;
#X connect 54 1 55 0;
#X connect 55 0 42 0;
#X connect 56 0 33 0;
#X connect 56 1 33 0;
#X connect 56 2 34 0;
#X connect 56 3 33 0;
#X connect 56 4 34 0;
#X connect 56 5 34 0;
#X connect 57 0 52 0;
#X connect 58 0 52 0;
#X connect 59 0 52 0;
#X connect 60 0 52 0;
#X restore 618 155 pd automata;
#N canvas 348 130 1536 781 synth 1;
#X obj 665 711 dac~;
#X obj 673 610 vline~;
#X obj 84 50 inlet;
#X msg 201 183 60 64 67 72;
#X obj 201 142 select 2 3;
#X obj 429 140 select 4 5 6 7;
#X msg 429 184 60 65 69 72;
#X msg 539 183 60 62 65 69;
#X obj 766 138 select 8 9 10 11 12 13 14 15;
#X msg 766 182 62 65 67 71;
#X msg 881 183 60 62 66 69;
#X msg 881 219 59 62 65 67;
#X msg 428 222 57 60 65 69;
#X msg 879 263 59 62 64 68;
#X obj 800 575 mtof;
#X obj 674 659 *~;
#X obj 84 103 change 1;
#X obj 273 462 f;
#X obj 309 462 + 1;
#X obj 620 514 f;
#X obj 669 512 f;
#X obj 714 511 f;
#X obj 761 512 f;
#X obj 271 538 t f f;
#X obj 650 334 unpack 0 0 0 0;
#X obj 1150 136 select 16 17 18 19;
#X msg 1220 174 57 60 64 69;
#X obj 273 426 bng 15 250 50 0 empty empty empty 17 7 0 10 -262144
-1 -1;
#X floatatom 203 600 5 0 0 0 - - -, f 5;
#X msg 187 430 0;
#X obj 273 393 metro 83;
#X msg 768 261 57 61 64 67;
#X msg 539 221 57 62 65 69;
#X obj 284 279 s chord;
#X obj 474 259 s chord;
#X obj 863 307 s chord;
#X obj 1213 254 s chord;
#X obj 613 275 r chord;
#X msg 673 574 1 50 \, 0 83 50;
#X obj 613 304 t b l;
#X obj 1130 242 + 7;
#X obj 1130 274 mod 12;
#X obj 1093 168 t b b;
#X obj 1130 206 v key;
#X obj 1240 328 v key;
#X obj 1382 276 mod 12;
#X obj 1345 170 t b b;
#X obj 1382 208 v key;
#X obj 1382 244 + 5;
#X obj 203 53 inlet;
#X obj 204 109 v key;
#X obj 1159 307 t b f;
#X obj 1328 304 t b f;
#X obj 800 614 phasor~;
#X obj 650 365 expr $f1+key \; $f2+key \; $f3+key \; $f4+key;
#X obj 203 78 t b f;
#N canvas 0 23 1536 781 pluck 0;
#X msg 284 233 0;
#X floatatom 438 282 5 0 0 0 - - -, f 5;
#X obj 70 161 noise~;
#X obj 72 270 *~;
#X msg 155 206 1;
#X obj 309 106 t b b f;
#X obj 438 253 expr 1000 / $f1;
#N canvas 0 50 1536 781 delay 0;
#X obj 1245 200 vd~ buff2;
#X obj 1065 468 delwrite~ buff2 1000;
#X obj 1066 390 inlet~;
#X obj 1245 149 inlet~;
#X obj 1245 467 outlet~;
#X obj 1148 201 block~ 1;
#X obj 1065 427 +~;
#X obj 1018 317 f;
#X obj 1171 246 env~;
#X floatatom 1160 280 5 0 0 0 - - -, f 5;
#X obj 1112 264 t b f;
#X obj 1021 292 spigot;
#X obj 1050 317 + 1;
#X floatatom 1013 341 5 0 0 0 - - -, f 5;
#X msg 971 322 0;
#X obj 1250 323 *~ 0.98;
#X connect 0 0 15 0;
#X connect 2 0 6 0;
#X connect 3 0 0 0;
#X connect 6 0 1 0;
#X connect 7 0 12 0;
#X connect 7 0 13 0;
#X connect 8 0 10 0;
#X connect 9 0 11 1;
#X connect 10 0 11 0;
#X connect 10 1 9 0;
#X connect 11 0 7 0;
#X connect 12 0 7 1;
#X connect 14 0 7 0;
#X connect 15 0 4 0;
#X connect 15 0 6 1;
#X restore 72 409 pd delay;
#X obj 284 205 del 8;
#X text 375 178 change pulse length;
#X obj 71 199 lop~ 1200;
#X obj 438 309 t f f;
#X obj 321 54 inlet;
#X obj 66 552 outlet~;
#X msg 337 173 30;
#X obj 73 492 *~ 1;
#X connect 0 0 3 1;
#X connect 1 0 11 0;
#X connect 2 0 10 0;
#X connect 3 0 7 0;
#X connect 4 0 3 1;
#X connect 5 0 4 0;
#X connect 5 1 8 0;
#X connect 5 2 6 0;
#X connect 6 0 1 0;
#X connect 7 0 15 0;
#X connect 8 0 0 0;
#X connect 10 0 3 0;
#X connect 11 0 8 1;
#X connect 11 1 7 1;
#X connect 12 0 5 0;
#X connect 14 0 8 1;
#X connect 15 0 13 0;
#X restore 752 665 pd pluck;
#X floatatom 1242 371 5 0 0 0 - - -, f 5;
#X msg 1188 201 60 64 67 72;
#X msg 306 183 57 60 64 69;
#X obj 636 467 select 0 1 2 3 4 5 6 7;
#X obj 130 483 select 7;
#X obj 271 500 mod 8;
#X msg 358 66 16;
#X obj 255 232 t b f;
#X obj 178 278 s sequencer;
#X obj 273 350 r sequencer, f 9;
#X connect 1 0 15 0;
#X connect 2 0 16 0;
#X connect 4 0 3 0;
#X connect 4 1 59 0;
#X connect 4 2 5 0;
#X connect 5 0 6 0;
#X connect 5 1 7 0;
#X connect 5 2 12 0;
#X connect 5 3 32 0;
#X connect 5 4 8 0;
#X connect 6 0 34 0;
#X connect 7 0 34 0;
#X connect 8 0 9 0;
#X connect 8 1 10 0;
#X connect 8 2 10 0;
#X connect 8 3 11 0;
#X connect 8 4 31 0;
#X connect 8 5 13 0;
#X connect 8 6 13 0;
#X connect 8 7 31 0;
#X connect 8 8 25 0;
#X connect 9 0 35 0;
#X connect 10 0 35 0;
#X connect 11 0 35 0;
#X connect 12 0 34 0;
#X connect 13 0 35 0;
#X connect 14 0 56 0;
#X connect 14 0 53 0;
#X connect 16 0 4 0;
#X connect 17 0 18 0;
#X connect 17 0 62 0;
#X connect 18 0 17 1;
#X connect 19 0 14 0;
#X connect 19 0 38 0;
#X connect 20 0 14 0;
#X connect 20 0 38 0;
#X connect 21 0 14 0;
#X connect 21 0 38 0;
#X connect 22 0 14 0;
#X connect 22 0 38 0;
#X connect 23 0 28 0;
#X connect 23 0 61 0;
#X connect 23 1 60 0;
#X connect 24 0 54 0;
#X connect 24 1 54 1;
#X connect 24 2 54 2;
#X connect 24 3 54 3;
#X connect 25 0 42 0;
#X connect 25 1 58 0;
#X connect 25 2 26 0;
#X connect 25 3 46 0;
#X connect 26 0 36 0;
#X connect 27 0 17 0;
#X connect 29 0 17 1;
#X connect 29 0 30 0;
#X connect 30 0 27 0;
#X connect 31 0 35 0;
#X connect 32 0 34 0;
#X connect 37 0 39 0;
#X connect 38 0 1 0;
#X connect 39 0 30 0;
#X connect 39 1 24 0;
#X connect 40 0 41 0;
#X connect 41 0 51 0;
#X connect 42 0 58 0;
#X connect 42 1 43 0;
#X connect 43 0 40 0;
#X connect 44 0 57 0;
#X connect 45 0 52 0;
#X connect 46 0 26 0;
#X connect 46 1 47 0;
#X connect 47 0 48 0;
#X connect 48 0 45 0;
#X connect 49 0 55 0;
#X connect 51 0 44 0;
#X connect 51 1 44 0;
#X connect 52 0 44 0;
#X connect 52 1 44 0;
#X connect 53 0 15 1;
#X connect 54 0 19 1;
#X connect 54 1 20 1;
#X connect 54 2 21 1;
#X connect 54 3 22 1;
#X connect 55 0 50 0;
#X connect 55 1 50 0;
#X connect 56 0 0 0;
#X connect 56 0 0 1;
#X connect 58 0 36 0;
#X connect 60 1 19 0;
#X connect 60 2 20 0;
#X connect 60 3 21 0;
#X connect 60 4 22 0;
#X connect 60 5 21 0;
#X connect 60 6 20 0;
#X connect 60 7 19 0;
#X connect 61 0 29 0;
#X connect 62 0 23 0;
#X connect 63 0 4 0;
#X connect 64 0 65 0;
#X connect 64 1 33 0;
#X connect 66 0 30 0;
#X restore 618 343 pd synth, f 9;
#X msg 817 677 list /state state: \$1;
#N canvas 287 128 1536 781 cookGyro 0;
#X obj 690 52 unpack 0 0 0;
#X obj 736 94 / 3.1416;
#X obj 929 114 / 3.1416;
#X obj 541 116 / 3.1416;
#X obj 818 421 < -0.55;
#X obj 1004 425 < -0.55;
#X obj 735 422 > 0.55;
#X obj 541 145 t f f;
#X obj 736 147 t f f;
#X obj 929 144 t f f;
#X obj 541 345 spigot;
#X obj 735 343 spigot;
#X obj 930 344 spigot;
#X obj 1004 454 sel 1;
#X obj 930 455 sel 1;
#X obj 818 451 sel 1;
#X obj 735 451 sel 1;
#X obj 621 450 sel 1;
#X obj 541 449 sel 1;
#X obj 541 476 t b b;
#X obj 621 476 t b b;
#X obj 735 475 t b b;
#X obj 818 478 t b b;
#X obj 930 480 t b b;
#X obj 1003 480 t b b;
#X msg 1200 645 0;
#X msg 1147 645 1;
#X obj 690 11 inlet;
#X obj 966 172 clip -1 1;
#X obj 773 173 clip -1 1;
#X obj 578 174 clip -1 1;
#X obj 621 420 > 0.55;
#X obj 736 121 * 0.33;
#X obj 541 290 t f b, f 6;
#X obj 735 291 t f b, f 6;
#X obj 930 289 t f b, f 6;
#X obj 780 317 v _gyroGate;
#X obj 586 316 v _gyroGate;
#X obj 975 317 v _gyroGate;
#X obj 1147 678 t f f;
#X obj 1184 706 v _gyroGate;
#X obj 1147 559 t b b b;
#X obj 1168 590 v _tempo;
#X obj 1147 618 del;
#X text 49 107 For some reason \, the roll sensor is getting values
much higher than pitch and yaw \, so I am deliberately scaling it to
0.33 of the value from the sensor input. I am not sure if this is a
Nexus6 specific problem or MobMuPlat's \, as it is the only phone I
have used for testing;
#X obj 541 225 expr $f3*(abs($f3)>abs($f1))*(abs($f3)>abs($f2)) \;
$f2*(abs($f2)>abs($f1))*(abs($f2)>abs($f3)) \; $f1*(abs($f1)>abs($f2))*(abs($f1)>abs($f3))
\;;
#X msg 541 566 1;
#X msg 621 566 2;
#X msg 735 566 3;
#X msg 819 566 4;
#X msg 930 564 5;
#X msg 1003 564 6;
#X obj 946 16 inlet;
#X obj 946 46 expr 60000/$f1;
#X obj 946 77 v _tempo;
#X obj 1097 18 inlet;
#X obj 1097 50 v _gyroGate;
#X obj 541 726 outlet;
#X obj 578 202 outlet;
#X obj 773 201 outlet;
#X obj 966 205 outlet;
#X obj 1147 737 outlet;
#X obj 541 418 < -0.55;
#X obj 930 425 > 0.55;
#X connect 0 0 3 0;
#X connect 0 1 1 0;
#X connect 0 2 2 0;
#X connect 1 0 32 0;
#X connect 2 0 9 0;
#X connect 3 0 7 0;
#X connect 4 0 15 0;
#X connect 5 0 13 0;
#X connect 6 0 16 0;
#X connect 7 0 45 0;
#X connect 7 1 30 0;
#X connect 8 0 45 1;
#X connect 8 1 29 0;
#X connect 9 0 45 2;
#X connect 9 1 28 0;
#X connect 10 0 31 0;
#X connect 10 0 62 0;
#X connect 11 0 6 0;
#X connect 11 0 4 0;
#X connect 12 0 5 0;
#X connect 12 0 63 0;
#X connect 13 0 24 0;
#X connect 14 0 23 0;
#X connect 15 0 22 0;
#X connect 16 0 21 0;
#X connect 17 0 20 0;
#X connect 18 0 19 0;
#X connect 19 0 46 0;
#X connect 19 1 41 0;
#X connect 20 0 47 0;
#X connect 20 1 41 0;
#X connect 21 0 48 0;
#X connect 21 1 41 0;
#X connect 22 0 49 0;
#X connect 22 1 41 0;
#X connect 23 0 50 0;
#X connect 23 1 41 0;
#X connect 24 0 51 0;
#X connect 24 1 41 0;
#X connect 25 0 39 0;
#X connect 26 0 39 0;
#X connect 27 0 0 0;
#X connect 28 0 60 0;
#X connect 29 0 59 0;
#X connect 30 0 58 0;
#X connect 31 0 17 0;
#X connect 32 0 8 0;
#X connect 33 0 10 0;
#X connect 33 1 37 0;
#X connect 34 0 11 0;
#X connect 34 1 36 0;
#X connect 35 0 12 0;
#X connect 35 1 38 0;
#X connect 36 0 11 1;
#X connect 37 0 10 1;
#X connect 38 0 12 1;
#X connect 39 0 61 0;
#X connect 39 1 40 0;
#X connect 41 0 43 0;
#X connect 41 1 42 0;
#X connect 41 2 25 0;
#X connect 42 0 43 1;
#X connect 43 0 26 0;
#X connect 45 0 33 0;
#X connect 45 1 34 0;
#X connect 45 2 35 0;
#X connect 46 0 57 0;
#X connect 47 0 57 0;
#X connect 48 0 57 0;
#X connect 49 0 57 0;
#X connect 50 0 57 0;
#X connect 51 0 57 0;
#X connect 52 0 53 0;
#X connect 53 0 54 0;
#X connect 55 0 56 0;
#X connect 62 0 18 0;
#X connect 63 0 14 0;
#X restore 53 259 pd cookGyro;
#X obj 74 359 v gyroX;
#X obj 95 333 v gyroY;
#X obj 116 308 v gyroZ;
#X obj 522 585 v gyroX;
#X obj 586 585 v gyroY;
#X obj 652 585 v gyroZ;
#X obj 244 222 v accelX;
#X obj 290 195 v accelY;
#X obj 337 169 v accelZ;
#X obj 548 632 pack 0 0 0;
#X msg 548 677 list /normGyro x: \$1 y: \$2 z: \$3;
#N canvas 0 50 1536 781 cookAccel 0;
#X obj 273 178 unpack 0 0 0;
#X obj 273 136 inlet;
#X obj 273 222 clip -1 1;
#X obj 319 290 clip -1 1;
#X obj 366 359 clip -1 1;
#X obj 273 252 outlet;
#X obj 319 321 outlet;
#X obj 366 390 outlet;
#X connect 0 0 2 0;
#X connect 0 1 3 0;
#X connect 0 2 4 0;
#X connect 1 0 0 0;
#X connect 2 0 5 0;
#X connect 3 0 6 0;
#X connect 4 0 7 0;
#X restore 244 136 pd cookAccel;
#X msg 1087 165 0, f 1;
#X msg 1113 165 1, f 1;
#X obj 1124 315 v key;
#X obj 1113 255 v state;
#X obj 999 643 v command;
#X msg 999 677 list /command command: \$1;
#X obj 817 742 send toGUI;
#X obj 817 644 v state;
#X obj 560 506 r logGyro;
#X obj 560 543 t b b b;
#X obj 832 573 r logState;
#X obj 817 608 t b;
#X obj 999 570 r logCommand;
#X obj 999 609 t b;
#X obj 618 124 v command;
#X obj 53 384 t b f;
#X obj 143 468 v command;
#X obj 791 457 r logAll;
#X obj 116 495 s logCommand;
#X obj 90 522 s logGyro;
#X text 226 459 Update the command number from gyroscope's input,
f 27;
#X obj 703 124 v state;
#X obj 1012 87 loadbang;
#X obj 687 314 v key;
#X obj 687 279 r init;
#X obj 703 90 r init;
#X obj 618 314 v state;
#X obj 671 214 v state;
#X obj 1092 87 r reset;
#X obj 1255 181 s reset;
#X obj 1036 413 s init;
#X obj 1087 283 t f f;
#X obj 1087 344 v command;
#X text 739 215 Update state;
#X obj 618 184 t b b f;
#X obj 644 249 s logState;
#X obj 1012 443 s logAll;
#X obj 1113 200 t f f;
#X obj 1150 229 v gyroGate;
#X obj 139 206 r init;
#X obj 138 229 v gyroGate;
#X obj 1188 545 t b;
#X obj 1188 572 v gyroGate;
#X msg 1188 605 list /gyroGate Gyroscope listener: \$1;
#X obj 1188 510 r logGyroGate;
#X obj 791 484 t b b b b;
#X obj 1255 150 route /reset;
#X obj 90 440 t b b f;
#X obj 106 156 s logGyroGate;
#X obj 90 412 change;
#X obj 138 285 v gyroGate;
#X obj 53 553 s runAutomata;
#X obj 618 61 r runAutomata;
#X obj 96 182 v tempo;
#X obj 1012 137 t b b b b b, f 13;
#X obj 1061 381 v tempo;
#X obj 53 132 t l b b;
#X text 455 149 Feed automata with the new command;
#X text 484 335 Feed the synth with new state;
#X msg 1062 165 50, f 2;
#X connect 0 0 1 0;
#X connect 1 0 67 0;
#X connect 2 0 3 0;
#X connect 3 0 4 0;
#X connect 4 0 77 0;
#X connect 4 1 20 0;
#X connect 5 0 55 0;
#X connect 7 0 27 0;
#X connect 8 0 36 0;
#X connect 8 1 9 0;
#X connect 8 2 10 0;
#X connect 8 3 11 0;
#X connect 8 4 71 0;
#X connect 12 0 18 0;
#X connect 13 0 18 1;
#X connect 14 0 18 2;
#X connect 18 0 19 0;
#X connect 19 0 27 0;
#X connect 20 0 15 0;
#X connect 20 1 16 0;
#X connect 20 2 17 0;
#X connect 21 0 52 0;
#X connect 22 0 58 0;
#X connect 25 0 26 0;
#X connect 26 0 27 0;
#X connect 28 0 7 0;
#X connect 29 0 30 0;
#X connect 30 0 12 0;
#X connect 30 1 13 0;
#X connect 30 2 14 0;
#X connect 31 0 32 0;
#X connect 32 0 28 0;
#X connect 33 0 34 0;
#X connect 34 0 25 0;
#X connect 35 0 5 0;
#X connect 36 0 72 0;
#X connect 36 1 70 0;
#X connect 38 0 66 0;
#X connect 42 0 5 1;
#X connect 43 0 75 0;
#X connect 44 0 6 1;
#X connect 45 0 44 0;
#X connect 45 0 47 0;
#X connect 46 0 42 0;
#X connect 46 0 35 0;
#X connect 47 0 6 0;
#X connect 49 0 75 0;
#X connect 52 0 53 0;
#X connect 52 1 23 0;
#X connect 55 0 47 0;
#X connect 55 1 56 0;
#X connect 55 2 48 0;
#X connect 58 0 24 0;
#X connect 58 1 59 0;
#X connect 60 0 61 0;
#X connect 61 0 8 2;
#X connect 62 0 63 0;
#X connect 63 0 64 0;
#X connect 64 0 27 0;
#X connect 65 0 62 0;
#X connect 66 0 30 0;
#X connect 66 1 32 0;
#X connect 66 2 34 0;
#X connect 66 3 62 0;
#X connect 67 0 50 0;
#X connect 68 0 40 0;
#X connect 68 1 39 0;
#X connect 68 2 37 0;
#X connect 70 0 68 0;
#X connect 73 0 35 0;
#X connect 74 0 8 1;
#X connect 75 0 57 0;
#X connect 75 1 51 0;
#X connect 75 2 80 0;
#X connect 75 3 21 0;
#X connect 75 4 22 0;
#X connect 77 0 8 0;
#X connect 77 1 74 0;
#X connect 77 2 69 0;
#X connect 80 0 76 0;
