#N canvas -8 -8 1536 781 12;
#X obj 1203 652 receive fromGUI;
#X obj 1203 683 list trim;
#X obj 24 51 receive fromSystem;
#X obj 24 77 list trim;
#X obj 24 106 route /gyro /accel;
#N canvas -8 -8 1536 781 automata 0;
#X obj 126 152 route 1;
#X obj 254 154 route 2 3;
#X obj 405 153 route 4 5 6 7;
#X msg 126 210 2, f 1;
#X msg 152 211 3, f 1;
#X msg 254 312 4, f 1;
#X msg 280 312 5, f 1;
#X obj 126 184 sel 1 2;
#X obj 254 283 sel 3 4;
#X obj 288 188 sel 3 4;
#X msg 288 218 6, f 1;
#X msg 314 217 7, f 1;
#X obj 405 465 sel 5 6;
#X msg 405 495 8, f 1;
#X msg 431 495 9, f 1;
#X obj 430 374 sel 5 6;
#X msg 430 404 10, f 2;
#X msg 456 404 11, f 2;
#X obj 455 280 sel 5 6;
#X msg 455 310 12, f 2;
#X msg 481 310 13, f 2;
#X obj 480 188 sel 5 6;
#X msg 480 218 14, f 2;
#X msg 506 218 15, f 2;
#X obj 661 276 sel 1 2;
#X obj 698 184 sel 1 2;
#X obj 808 273 sel 1 2;
#X obj 844 189 sel 1 2;
#X msg 661 306 17, f 2;
#X msg 687 306 18, f 2;
#X msg 698 214 16, f 2;
#X msg 724 214 18, f 2;
#X obj 1012 184 sel 3 4;
#X obj 1102 183 sel 3 4;
#X msg 1012 214 4, f 1;
#X msg 1038 214 5, f 1;
#X msg 1102 213 6, f 1;
#X msg 1128 213 7, f 1;
#X obj 126 117 pack 0 0;
#X obj 126 70 inlet;
#X obj 408 705 outlet;
#X obj 187 71 inlet;
#X msg 808 303 19, f 2;
#X msg 834 303 20, f 2;
#X msg 844 219 19, f 2;
#X msg 870 219 21, f 2;
#X obj 288 250 s newState;
#X obj 126 252 s newState;
#X obj 254 351 s newState;
#X obj 405 532 s newState;
#X obj 480 250 s newState;
#X obj 455 343 s newState;
#X obj 430 433 s newState;
#X obj 661 343 s newState;
#X obj 1012 258 s newState;
#X obj 408 665 r newState;
#X obj 1012 149 route 16 17 19 18 20 21;
#X obj 844 248 s newState;
#X obj 698 248 s newState;
#X obj 808 337 s newState;
#X obj 625 153 route 8 11 9 10 12 15 13 14, f 37;
#X connect 0 0 7 0;
#X connect 0 1 1 0;
#X connect 1 0 8 0;
#X connect 1 1 9 0;
#X connect 1 2 2 0;
#X connect 2 0 12 0;
#X connect 2 1 15 0;
#X connect 2 2 18 0;
#X connect 2 3 21 0;
#X connect 2 4 60 0;
#X connect 3 0 47 0;
#X connect 4 0 47 0;
#X connect 5 0 48 0;
#X connect 6 0 48 0;
#X connect 7 0 3 0;
#X connect 7 1 4 0;
#X connect 8 0 5 0;
#X connect 8 1 6 0;
#X connect 9 0 10 0;
#X connect 9 1 11 0;
#X connect 10 0 46 0;
#X connect 11 0 46 0;
#X connect 12 0 13 0;
#X connect 12 1 14 0;
#X connect 13 0 49 0;
#X connect 14 0 49 0;
#X connect 15 0 16 0;
#X connect 15 1 17 0;
#X connect 16 0 52 0;
#X connect 17 0 52 0;
#X connect 18 0 19 0;
#X connect 18 1 20 0;
#X connect 19 0 51 0;
#X connect 20 0 51 0;
#X connect 21 0 22 0;
#X connect 21 1 23 0;
#X connect 22 0 50 0;
#X connect 23 0 50 0;
#X connect 24 0 28 0;
#X connect 24 1 29 0;
#X connect 25 0 30 0;
#X connect 25 1 31 0;
#X connect 26 0 42 0;
#X connect 26 1 43 0;
#X connect 27 0 44 0;
#X connect 27 1 45 0;
#X connect 28 0 53 0;
#X connect 29 0 53 0;
#X connect 30 0 58 0;
#X connect 31 0 58 0;
#X connect 32 0 34 0;
#X connect 32 1 35 0;
#X connect 33 0 36 0;
#X connect 33 1 37 0;
#X connect 34 0 54 0;
#X connect 35 0 54 0;
#X connect 36 0 54 0;
#X connect 37 0 54 0;
#X connect 38 0 0 0;
#X connect 39 0 38 0;
#X connect 41 0 38 1;
#X connect 42 0 59 0;
#X connect 43 0 59 0;
#X connect 44 0 57 0;
#X connect 45 0 57 0;
#X connect 55 0 40 0;
#X connect 56 0 32 0;
#X connect 56 1 32 0;
#X connect 56 2 32 0;
#X connect 56 3 33 0;
#X connect 56 4 33 0;
#X connect 56 5 33 0;
#X connect 60 0 24 0;
#X connect 60 1 24 0;
#X connect 60 2 25 0;
#X connect 60 3 25 0;
#X connect 60 4 26 0;
#X connect 60 5 26 0;
#X connect 60 6 27 0;
#X connect 60 7 27 0;
#X connect 60 8 56 0;
#X restore 485 246 pd automata;
#N canvas 287 128 1536 781 cookGyro 0;
#X obj 690 52 unpack 0 0 0;
#X obj 736 94 / 3.1416;
#X obj 929 114 / 3.1416;
#X obj 541 116 / 3.1416;
#X obj 818 421 < -0.55;
#X obj 1004 425 < -0.55;
#X obj 735 422 > 0.55;
#X obj 541 145 t f f;
#X obj 736 147 t f f;
#X obj 929 144 t f f;
#X obj 541 345 spigot;
#X obj 735 343 spigot;
#X obj 930 344 spigot;
#X obj 1004 454 sel 1;
#X obj 930 455 sel 1;
#X obj 818 451 sel 1;
#X obj 735 451 sel 1;
#X obj 621 450 sel 1;
#X obj 541 449 sel 1;
#X obj 541 476 t b b;
#X obj 621 476 t b b;
#X obj 735 475 t b b;
#X obj 818 478 t b b;
#X obj 930 480 t b b;
#X obj 1003 480 t b b;
#X msg 1200 645 0;
#X msg 1147 645 1;
#X obj 690 11 inlet;
#X obj 966 172 clip -1 1;
#X obj 773 173 clip -1 1;
#X obj 578 174 clip -1 1;
#X obj 621 420 > 0.55;
#X obj 736 121 * 0.33;
#X obj 541 290 t f b, f 6;
#X obj 735 291 t f b, f 6;
#X obj 930 289 t f b, f 6;
#X obj 780 317 v _gyroGate;
#X obj 586 316 v _gyroGate;
#X obj 975 317 v _gyroGate;
#X obj 1147 678 t f f;
#X obj 1184 706 v _gyroGate;
#X obj 1147 559 t b b b;
#X obj 1168 590 v _tempo;
#X obj 1147 618 del;
#X text 49 107 For some reason \, the roll sensor is getting values
much higher than pitch and yaw \, so I am deliberately scaling it to
0.33 of the value from the sensor input. I am not sure if this is a
Nexus6 specific problem or MobMuPlat's \, as it is the only phone I
have used for testing;
#X obj 541 225 expr $f3*(abs($f3)>abs($f1))*(abs($f3)>abs($f2)) \;
$f2*(abs($f2)>abs($f1))*(abs($f2)>abs($f3)) \; $f1*(abs($f1)>abs($f2))*(abs($f1)>abs($f3))
\;;
#X msg 541 566 1;
#X msg 621 566 2;
#X msg 735 566 3;
#X msg 819 566 4;
#X msg 930 564 5;
#X msg 1003 564 6;
#X obj 946 16 inlet;
#X obj 946 46 expr 60000/$f1;
#X obj 946 77 v _tempo;
#X obj 1097 18 inlet;
#X obj 1097 50 v _gyroGate;
#X obj 541 726 outlet;
#X obj 578 202 outlet;
#X obj 773 201 outlet;
#X obj 966 205 outlet;
#X obj 1147 737 outlet;
#X obj 541 418 < -0.55;
#X obj 930 425 > 0.55;
#X connect 0 0 3 0;
#X connect 0 1 1 0;
#X connect 0 2 2 0;
#X connect 1 0 32 0;
#X connect 2 0 9 0;
#X connect 3 0 7 0;
#X connect 4 0 15 0;
#X connect 5 0 13 0;
#X connect 6 0 16 0;
#X connect 7 0 45 0;
#X connect 7 1 30 0;
#X connect 8 0 45 1;
#X connect 8 1 29 0;
#X connect 9 0 45 2;
#X connect 9 1 28 0;
#X connect 10 0 31 0;
#X connect 10 0 62 0;
#X connect 11 0 6 0;
#X connect 11 0 4 0;
#X connect 12 0 5 0;
#X connect 12 0 63 0;
#X connect 13 0 24 0;
#X connect 14 0 23 0;
#X connect 15 0 22 0;
#X connect 16 0 21 0;
#X connect 17 0 20 0;
#X connect 18 0 19 0;
#X connect 19 0 46 0;
#X connect 19 1 41 0;
#X connect 20 0 47 0;
#X connect 20 1 41 0;
#X connect 21 0 48 0;
#X connect 21 1 41 0;
#X connect 22 0 49 0;
#X connect 22 1 41 0;
#X connect 23 0 50 0;
#X connect 23 1 41 0;
#X connect 24 0 51 0;
#X connect 24 1 41 0;
#X connect 25 0 39 0;
#X connect 26 0 39 0;
#X connect 27 0 0 0;
#X connect 28 0 60 0;
#X connect 29 0 59 0;
#X connect 30 0 58 0;
#X connect 31 0 17 0;
#X connect 32 0 8 0;
#X connect 33 0 10 0;
#X connect 33 1 37 0;
#X connect 34 0 11 0;
#X connect 34 1 36 0;
#X connect 35 0 12 0;
#X connect 35 1 38 0;
#X connect 36 0 11 1;
#X connect 37 0 10 1;
#X connect 38 0 12 1;
#X connect 39 0 61 0;
#X connect 39 1 40 0;
#X connect 41 0 43 0;
#X connect 41 1 42 0;
#X connect 41 2 25 0;
#X connect 42 0 43 1;
#X connect 43 0 26 0;
#X connect 45 0 33 0;
#X connect 45 1 34 0;
#X connect 45 2 35 0;
#X connect 46 0 57 0;
#X connect 47 0 57 0;
#X connect 48 0 57 0;
#X connect 49 0 57 0;
#X connect 50 0 57 0;
#X connect 51 0 57 0;
#X connect 52 0 53 0;
#X connect 53 0 54 0;
#X connect 55 0 56 0;
#X connect 62 0 18 0;
#X connect 63 0 14 0;
#X restore 24 259 pd cookGyro;
#X obj 45 359 v gyroX;
#X obj 66 333 v gyroY;
#X obj 87 308 v gyroZ;
#X obj 215 222 v accelX;
#X obj 261 195 v accelY;
#X obj 308 169 v accelZ;
#N canvas 0 50 1536 781 cookAccel 0;
#X obj 273 178 unpack 0 0 0;
#X obj 273 136 inlet;
#X obj 273 222 clip -1 1;
#X obj 319 290 clip -1 1;
#X obj 366 359 clip -1 1;
#X obj 273 252 outlet;
#X obj 319 321 outlet;
#X obj 366 390 outlet;
#X connect 0 0 2 0;
#X connect 0 1 3 0;
#X connect 0 2 4 0;
#X connect 1 0 0 0;
#X connect 2 0 5 0;
#X connect 3 0 6 0;
#X connect 4 0 7 0;
#X restore 215 136 pd cookAccel;
#X obj 485 214 v command;
#X obj 24 384 t b f;
#X obj 114 467 v command;
#X obj 87 495 s logCommand;
#X obj 61 522 s logGyro;
#X text 195 438 Update the command number from gyroscope's input,
f 12;
#X obj 570 214 v state;
#X obj 1029 695 loadbang;
#X obj 538 305 v state;
#X obj 1109 695 r reset;
#X obj 1203 744 s reset;
#X text 605 304 Update state;
#X obj 485 275 t b b f;
#X obj 110 206 r init;
#X obj 109 229 v gyroGate;
#X obj 1203 713 route /reset;
#X obj 61 440 t b b f;
#X obj 77 156 s logGyroGate;
#X obj 61 412 change;
#X obj 109 285 v gyroGate;
#X obj 24 553 s runAutomata;
#X obj 485 130 r runAutomata;
#X obj 66 182 v tempo;
#X obj 24 132 t l b b;
#X text 482 91 Feed automata with new command, f 17;
#X obj 777 137 r runSynth;
#N canvas -8 -8 1536 781 synth 1;
#X obj 97 22 inlet;
#X obj 97 115 change 1;
#X obj 209 21 inlet;
#X obj 97 51 t b f;
#X obj 97 84 v _state;
#X obj 316 23 inlet;
#X obj 450 23 inlet;
#X obj 209 52 v _key;
#X obj 316 82 v _tempo;
#X obj 450 80 v _damp;
#X obj 1167 78 r notes;
#X obj 1167 109 unpack 0 0 0 0 0, f 19;
#X obj 693 254 v _tempo;
#X obj 316 52 expr 7500/$f1;
#X obj 450 51 expr abs($f1);
#X obj 656 216 t b b;
#N canvas 0 50 1300 773 sequencer 0;
#X obj 562 224 f;
#X obj 600 224 + 1;
#X obj 562 314 t f f;
#X obj 599 343 select 7;
#X obj 562 283 mod 8;
#X obj 562 185 metro;
#X obj 562 250 t f f;
#X obj 599 130 inlet;
#X obj 562 98 inlet;
#X obj 481 115 r stop;
#X obj 481 140 t b b;
#X msg 518 165 stop;
#X msg 481 204 0, f 1;
#X obj 599 374 s stop;
#X obj 562 404 outlet;
#X connect 0 0 6 0;
#X connect 1 0 0 1;
#X connect 2 0 14 0;
#X connect 2 1 3 0;
#X connect 3 0 13 0;
#X connect 4 0 2 0;
#X connect 5 0 0 0;
#X connect 6 0 4 0;
#X connect 6 1 1 0;
#X connect 7 0 5 1;
#X connect 8 0 5 0;
#X connect 9 0 10 0;
#X connect 10 0 12 0;
#X connect 10 1 11 0;
#X connect 11 0 5 0;
#X connect 12 0 0 0;
#X restore 656 298 pd sequencer;
#X obj 1167 140 expr $f1+_key \; $f2+_key \; $f3+_key \; $f4+_key \;
$f5+_key, f 19;
#X obj 97 245 s runSequencer;
#X obj 656 189 r runSequencer;
#N canvas 0 50 1540 792 parseState 1;
#X obj 194 39 select 2 3;
#X obj 375 41 select 4 5 6 7;
#X obj 194 7 inlet;
#X obj 597 42 select 8 9 10 11;
#X obj 836 45 select 12 13 14 15;
#X obj 232 100 s _notes;
#X obj 194 158 s _notes;
#X obj 456 95 s _notes;
#X obj 429 150 s _notes;
#X obj 402 206 s _notes;
#X obj 375 259 s _notes;
#X obj 690 100 s _notes;
#X obj 659 154 s _notes;
#X obj 628 214 s _notes;
#X obj 597 272 s _notes;
#X obj 941 102 s _notes;
#X obj 906 156 s _notes;
#X obj 871 215 s _notes;
#X obj 835 270 s _notes;
#X obj 1156 102 s _notes;
#X obj 1117 155 s _notes;
#X obj 1078 208 s _notes;
#X obj 1078 46 select 16 17 18;
#X obj 1372 103 s _notes;
#X obj 1333 156 s _notes;
#X obj 1294 209 s _notes;
#X obj 1294 47 select 19 20 21;
#X msg 232 74 45 48 52 57 69;
#X msg 194 132 60 64 67 72 48;
#X msg 375 233 60 65 69 72 53;
#X msg 402 180 62 65 69 72 50;
#X msg 429 124 45 48 53 57 65;
#X msg 456 69 45 50 53 57 65;
#X msg 597 246 62 65 67 71 55;
#X msg 628 188 62 66 69 72 50;
#X msg 659 128 62 66 69 72 50;
#X msg 690 74 62 65 67 71 55;
#X msg 835 244 47 50 52 56 64;
#X msg 871 189 45 49 52 55 61;
#X msg 906 130 45 49 52 55 61;
#X msg 941 76 47 50 52 56 64;
#X msg 1078 182 60 64 67 72 48;
#X msg 1117 129 60 64 67 72 48;
#X msg 1156 76 45 48 52 57 69;
#X msg 1294 183 60 64 67 72 48;
#X msg 1333 130 45 48 52 57 69;
#X msg 1372 77 45 48 52 57 69;
#X connect 0 0 28 0;
#X connect 0 1 27 0;
#X connect 0 2 1 0;
#X connect 1 0 29 0;
#X connect 1 1 30 0;
#X connect 1 2 31 0;
#X connect 1 3 32 0;
#X connect 1 4 3 0;
#X connect 2 0 0 0;
#X connect 3 0 33 0;
#X connect 3 1 34 0;
#X connect 3 2 35 0;
#X connect 3 3 36 0;
#X connect 3 4 4 0;
#X connect 4 0 37 0;
#X connect 4 1 38 0;
#X connect 4 2 39 0;
#X connect 4 3 40 0;
#X connect 4 4 22 0;
#X connect 22 0 41 0;
#X connect 22 1 42 0;
#X connect 22 2 43 0;
#X connect 22 3 26 0;
#X connect 26 0 44 0;
#X connect 26 1 45 0;
#X connect 26 2 46 0;
#X connect 27 0 5 0;
#X connect 28 0 6 0;
#X connect 29 0 10 0;
#X connect 30 0 9 0;
#X connect 31 0 8 0;
#X connect 32 0 7 0;
#X connect 33 0 14 0;
#X connect 34 0 13 0;
#X connect 35 0 12 0;
#X connect 36 0 11 0;
#X connect 37 0 18 0;
#X connect 38 0 17 0;
#X connect 39 0 16 0;
#X connect 40 0 15 0;
#X connect 41 0 21 0;
#X connect 42 0 20 0;
#X connect 43 0 19 0;
#X connect 44 0 25 0;
#X connect 45 0 24 0;
#X connect 46 0 23 0;
#X restore 97 153 pd parseState;
#X obj 97 186 t b b;
#X obj 134 217 s notes;
#X obj 595 25 inlet;
#X obj 595 51 v _cadence;
#X obj 656 334 t f b b b, f 40;
#N canvas 239 50 1085 486 synth 0;
#X obj 271 7 inlet;
#X obj 271 47 change;
#X obj 437 7 inlet;
#X obj 492 7 inlet;
#X obj 550 7 inlet;
#X obj 606 8 inlet;
#X obj 662 9 inlet;
#X obj 721 10 inlet;
#X obj 798 10 inlet;
#X obj 437 40 v _f1;
#X obj 492 40 v _f2;
#X obj 662 42 v _f5;
#X obj 606 41 v _f4;
#X obj 550 40 v _f3;
#X obj 721 43 v _damp;
#X obj 219 200 v _f1;
#X obj 798 42 v _cadence;
#X obj 661 130 v _cadence;
#N canvas 344 393 1536 781 pluck 0;
#X msg 336 238 0;
#X floatatom 430 162 5 0 0 0 - - -, f 5;
#X obj 146 148 noise~;
#X obj 146 256 *~;
#X msg 309 171 1, f 2;
#X obj 309 106 t b b f;
#X obj 430 133 expr 1000 / $f1;
#N canvas 0 50 1536 781 delay 0;
#X obj 1245 191 vd~ buff2;
#X obj 1065 468 delwrite~ buff2 1000;
#X obj 1065 372 inlet~;
#X obj 1245 149 inlet~;
#X obj 1245 467 outlet~;
#X obj 943 184 block~ 1;
#X obj 1065 427 +~;
#X obj 1018 317 f;
#X obj 1171 246 env~;
#X floatatom 1160 280 5 0 0 0 - - -, f 5;
#X obj 1112 264 t b f;
#X obj 1021 292 spigot;
#X obj 1050 317 + 1;
#X floatatom 1013 341 5 0 0 0 - - -, f 5;
#X msg 971 322 0;
#X obj 1245 270 *~ 0.98;
#X obj 1298 232 inlet;
#X connect 0 0 15 0;
#X connect 2 0 6 0;
#X connect 3 0 0 0;
#X connect 6 0 1 0;
#X connect 7 0 12 0;
#X connect 7 0 13 0;
#X connect 8 0 10 0;
#X connect 9 0 11 1;
#X connect 10 0 11 0;
#X connect 10 1 9 0;
#X connect 11 0 7 0;
#X connect 12 0 7 1;
#X connect 14 0 7 0;
#X connect 15 0 4 0;
#X connect 15 0 6 1;
#X connect 16 0 15 1;
#X restore 146 345 pd delay;
#X obj 336 210 del 8;
#X obj 146 187 lop~ 1200;
#X obj 309 61 inlet;
#X obj 146 462 outlet~;
#X msg 373 175 30;
#X obj 146 408 *~ 1;
#X obj 635 81 inlet;
#X obj 635 148 v _damp;
#X obj 635 114 expr 0.9+($f1*0.1);
#X obj 430 189 t f f b;
#X obj 483 219 v _damp;
#X connect 0 0 3 1;
#X connect 1 0 17 0;
#X connect 2 0 9 0;
#X connect 3 0 7 0;
#X connect 4 0 3 1;
#X connect 5 0 4 0;
#X connect 5 1 8 0;
#X connect 5 2 6 0;
#X connect 6 0 1 0;
#X connect 7 0 13 0;
#X connect 8 0 0 0;
#X connect 9 0 3 0;
#X connect 10 0 5 0;
#X connect 12 0 8 1;
#X connect 13 0 11 0;
#X connect 14 0 16 0;
#X connect 16 0 15 0;
#X connect 17 0 8 1;
#X connect 17 1 7 1;
#X connect 17 2 18 0;
#X connect 18 0 7 2;
#X restore 219 283 pd pluck;
#X obj 219 228 t f b;
#X obj 256 256 v _damp;
#X obj 334 200 v _f1;
#N canvas 344 393 1536 781 pluck 0;
#X msg 336 238 0;
#X floatatom 430 162 5 0 0 0 - - -, f 5;
#X obj 146 148 noise~;
#X obj 146 256 *~;
#X msg 309 171 1, f 2;
#X obj 309 106 t b b f;
#X obj 430 133 expr 1000 / $f1;
#N canvas 0 50 1536 781 delay 0;
#X obj 1245 191 vd~ buff2;
#X obj 1065 468 delwrite~ buff2 1000;
#X obj 1065 372 inlet~;
#X obj 1245 149 inlet~;
#X obj 1245 467 outlet~;
#X obj 943 184 block~ 1;
#X obj 1065 427 +~;
#X obj 1018 317 f;
#X obj 1171 246 env~;
#X floatatom 1160 280 5 0 0 0 - - -, f 5;
#X obj 1112 264 t b f;
#X obj 1021 292 spigot;
#X obj 1050 317 + 1;
#X floatatom 1013 341 5 0 0 0 - - -, f 5;
#X msg 971 322 0;
#X obj 1245 270 *~ 0.98;
#X obj 1298 232 inlet;
#X connect 0 0 15 0;
#X connect 2 0 6 0;
#X connect 3 0 0 0;
#X connect 6 0 1 0;
#X connect 7 0 12 0;
#X connect 7 0 13 0;
#X connect 8 0 10 0;
#X connect 9 0 11 1;
#X connect 10 0 11 0;
#X connect 10 1 9 0;
#X connect 11 0 7 0;
#X connect 12 0 7 1;
#X connect 14 0 7 0;
#X connect 15 0 4 0;
#X connect 15 0 6 1;
#X connect 16 0 15 1;
#X restore 146 345 pd delay;
#X obj 336 210 del 8;
#X obj 146 187 lop~ 1200;
#X obj 309 61 inlet;
#X obj 146 462 outlet~;
#X msg 373 175 30;
#X obj 146 408 *~ 1;
#X obj 635 81 inlet;
#X obj 635 148 v _damp;
#X obj 635 114 expr 0.9+($f1*0.1);
#X obj 430 189 t f f b;
#X obj 483 219 v _damp;
#X connect 0 0 3 1;
#X connect 1 0 17 0;
#X connect 2 0 9 0;
#X connect 3 0 7 0;
#X connect 4 0 3 1;
#X connect 5 0 4 0;
#X connect 5 1 8 0;
#X connect 5 2 6 0;
#X connect 6 0 1 0;
#X connect 7 0 13 0;
#X connect 8 0 0 0;
#X connect 9 0 3 0;
#X connect 10 0 5 0;
#X connect 12 0 8 1;
#X connect 13 0 11 0;
#X connect 14 0 16 0;
#X connect 16 0 15 0;
#X connect 17 0 8 1;
#X connect 17 1 7 1;
#X connect 17 2 18 0;
#X connect 18 0 7 2;
#X restore 334 283 pd pluck;
#X obj 334 228 t f b;
#X obj 371 256 v _damp;
#X obj 440 201 v _f1;
#N canvas 344 393 1536 781 pluck 0;
#X msg 336 238 0;
#X floatatom 430 162 5 0 0 0 - - -, f 5;
#X obj 146 148 noise~;
#X obj 146 256 *~;
#X msg 309 171 1, f 2;
#X obj 309 106 t b b f;
#X obj 430 133 expr 1000 / $f1;
#N canvas 0 50 1536 781 delay 0;
#X obj 1245 191 vd~ buff2;
#X obj 1065 468 delwrite~ buff2 1000;
#X obj 1065 372 inlet~;
#X obj 1245 149 inlet~;
#X obj 1245 467 outlet~;
#X obj 943 184 block~ 1;
#X obj 1065 427 +~;
#X obj 1018 317 f;
#X obj 1171 246 env~;
#X floatatom 1160 280 5 0 0 0 - - -, f 5;
#X obj 1112 264 t b f;
#X obj 1021 292 spigot;
#X obj 1050 317 + 1;
#X floatatom 1013 341 5 0 0 0 - - -, f 5;
#X msg 971 322 0;
#X obj 1245 270 *~ 0.98;
#X obj 1298 232 inlet;
#X connect 0 0 15 0;
#X connect 2 0 6 0;
#X connect 3 0 0 0;
#X connect 6 0 1 0;
#X connect 7 0 12 0;
#X connect 7 0 13 0;
#X connect 8 0 10 0;
#X connect 9 0 11 1;
#X connect 10 0 11 0;
#X connect 10 1 9 0;
#X connect 11 0 7 0;
#X connect 12 0 7 1;
#X connect 14 0 7 0;
#X connect 15 0 4 0;
#X connect 15 0 6 1;
#X connect 16 0 15 1;
#X restore 146 345 pd delay;
#X obj 336 210 del 8;
#X obj 146 187 lop~ 1200;
#X obj 309 61 inlet;
#X obj 146 462 outlet~;
#X msg 373 175 30;
#X obj 146 408 *~ 1;
#X obj 635 81 inlet;
#X obj 635 148 v _damp;
#X obj 635 114 expr 0.9+($f1*0.1);
#X obj 430 189 t f f b;
#X obj 483 219 v _damp;
#X connect 0 0 3 1;
#X connect 1 0 17 0;
#X connect 2 0 9 0;
#X connect 3 0 7 0;
#X connect 4 0 3 1;
#X connect 5 0 4 0;
#X connect 5 1 8 0;
#X connect 5 2 6 0;
#X connect 6 0 1 0;
#X connect 7 0 13 0;
#X connect 8 0 0 0;
#X connect 9 0 3 0;
#X connect 10 0 5 0;
#X connect 12 0 8 1;
#X connect 13 0 11 0;
#X connect 14 0 16 0;
#X connect 16 0 15 0;
#X connect 17 0 8 1;
#X connect 17 1 7 1;
#X connect 17 2 18 0;
#X connect 18 0 7 2;
#X restore 440 284 pd pluck;
#X obj 440 229 t f b;
#X obj 477 257 v _damp;
#X obj 549 202 v _f1;
#N canvas 344 393 1536 781 pluck 0;
#X msg 336 238 0;
#X floatatom 430 162 5 0 0 0 - - -, f 5;
#X obj 146 148 noise~;
#X obj 146 256 *~;
#X msg 309 171 1, f 2;
#X obj 309 106 t b b f;
#X obj 430 133 expr 1000 / $f1;
#N canvas 0 50 1536 781 delay 0;
#X obj 1245 191 vd~ buff2;
#X obj 1065 468 delwrite~ buff2 1000;
#X obj 1065 372 inlet~;
#X obj 1245 149 inlet~;
#X obj 1245 467 outlet~;
#X obj 943 184 block~ 1;
#X obj 1065 427 +~;
#X obj 1018 317 f;
#X obj 1171 246 env~;
#X floatatom 1160 280 5 0 0 0 - - -, f 5;
#X obj 1112 264 t b f;
#X obj 1021 292 spigot;
#X obj 1050 317 + 1;
#X floatatom 1013 341 5 0 0 0 - - -, f 5;
#X msg 971 322 0;
#X obj 1245 270 *~ 0.98;
#X obj 1298 232 inlet;
#X connect 0 0 15 0;
#X connect 2 0 6 0;
#X connect 3 0 0 0;
#X connect 6 0 1 0;
#X connect 7 0 12 0;
#X connect 7 0 13 0;
#X connect 8 0 10 0;
#X connect 9 0 11 1;
#X connect 10 0 11 0;
#X connect 10 1 9 0;
#X connect 11 0 7 0;
#X connect 12 0 7 1;
#X connect 14 0 7 0;
#X connect 15 0 4 0;
#X connect 15 0 6 1;
#X connect 16 0 15 1;
#X restore 146 345 pd delay;
#X obj 336 210 del 8;
#X obj 146 187 lop~ 1200;
#X obj 309 61 inlet;
#X obj 146 462 outlet~;
#X msg 373 175 30;
#X obj 146 408 *~ 1;
#X obj 635 81 inlet;
#X obj 635 148 v _damp;
#X obj 635 114 expr 0.9+($f1*0.1);
#X obj 430 189 t f f b;
#X obj 483 219 v _damp;
#X connect 0 0 3 1;
#X connect 1 0 17 0;
#X connect 2 0 9 0;
#X connect 3 0 7 0;
#X connect 4 0 3 1;
#X connect 5 0 4 0;
#X connect 5 1 8 0;
#X connect 5 2 6 0;
#X connect 6 0 1 0;
#X connect 7 0 13 0;
#X connect 8 0 0 0;
#X connect 9 0 3 0;
#X connect 10 0 5 0;
#X connect 12 0 8 1;
#X connect 13 0 11 0;
#X connect 14 0 16 0;
#X connect 16 0 15 0;
#X connect 17 0 8 1;
#X connect 17 1 7 1;
#X connect 17 2 18 0;
#X connect 18 0 7 2;
#X restore 549 285 pd pluck;
#X obj 549 230 t f b;
#X obj 586 258 v _damp;
#X obj 661 203 v _f1;
#N canvas 344 393 1536 781 pluck 0;
#X msg 336 238 0;
#X floatatom 430 162 5 0 0 0 - - -, f 5;
#X obj 146 148 noise~;
#X obj 146 256 *~;
#X msg 309 171 1, f 2;
#X obj 309 106 t b b f;
#X obj 430 133 expr 1000 / $f1;
#N canvas 0 50 1536 781 delay 0;
#X obj 1245 191 vd~ buff2;
#X obj 1065 468 delwrite~ buff2 1000;
#X obj 1065 372 inlet~;
#X obj 1245 149 inlet~;
#X obj 1245 467 outlet~;
#X obj 943 184 block~ 1;
#X obj 1065 427 +~;
#X obj 1018 317 f;
#X obj 1171 246 env~;
#X floatatom 1160 280 5 0 0 0 - - -, f 5;
#X obj 1112 264 t b f;
#X obj 1021 292 spigot;
#X obj 1050 317 + 1;
#X floatatom 1013 341 5 0 0 0 - - -, f 5;
#X msg 971 322 0;
#X obj 1245 270 *~ 0.98;
#X obj 1298 232 inlet;
#X connect 0 0 15 0;
#X connect 2 0 6 0;
#X connect 3 0 0 0;
#X connect 6 0 1 0;
#X connect 7 0 12 0;
#X connect 7 0 13 0;
#X connect 8 0 10 0;
#X connect 9 0 11 1;
#X connect 10 0 11 0;
#X connect 10 1 9 0;
#X connect 11 0 7 0;
#X connect 12 0 7 1;
#X connect 14 0 7 0;
#X connect 15 0 4 0;
#X connect 15 0 6 1;
#X connect 16 0 15 1;
#X restore 146 345 pd delay;
#X obj 336 210 del 8;
#X obj 146 187 lop~ 1200;
#X obj 309 61 inlet;
#X obj 146 462 outlet~;
#X msg 373 175 30;
#X obj 146 408 *~ 1;
#X obj 635 81 inlet;
#X obj 635 148 v _damp;
#X obj 635 114 expr 0.9+($f1*0.1);
#X obj 430 189 t f f b;
#X obj 483 219 v _damp;
#X connect 0 0 3 1;
#X connect 1 0 17 0;
#X connect 2 0 9 0;
#X connect 3 0 7 0;
#X connect 4 0 3 1;
#X connect 5 0 4 0;
#X connect 5 1 8 0;
#X connect 5 2 6 0;
#X connect 6 0 1 0;
#X connect 7 0 13 0;
#X connect 8 0 0 0;
#X connect 9 0 3 0;
#X connect 10 0 5 0;
#X connect 12 0 8 1;
#X connect 13 0 11 0;
#X connect 14 0 16 0;
#X connect 16 0 15 0;
#X connect 17 0 8 1;
#X connect 17 1 7 1;
#X connect 17 2 18 0;
#X connect 18 0 7 2;
#X restore 661 286 pd pluck;
#X obj 661 231 t f b;
#X obj 698 259 v _damp;
#X obj 661 161 sel 1 0;
#X obj 271 89 sel 1 2 3 4 5 6 7 0, f 56;
#X obj 292 335 +~;
#X obj 491 323 +~;
#X obj 491 360 +~;
#X obj 380 396 +~;
#X obj 380 424 *~ 0.2;
#X obj 380 458 outlet~, f 40;
#X connect 0 0 1 0;
#X connect 1 0 38 0;
#X connect 2 0 9 0;
#X connect 3 0 10 0;
#X connect 4 0 13 0;
#X connect 5 0 12 0;
#X connect 6 0 11 0;
#X connect 7 0 14 0;
#X connect 8 0 16 0;
#X connect 15 0 19 0;
#X connect 17 0 37 0;
#X connect 18 0 39 0;
#X connect 19 0 18 0;
#X connect 19 1 20 0;
#X connect 20 0 18 1;
#X connect 21 0 23 0;
#X connect 22 0 39 1;
#X connect 23 0 22 0;
#X connect 23 1 24 0;
#X connect 24 0 22 1;
#X connect 25 0 27 0;
#X connect 26 0 40 0;
#X connect 27 0 26 0;
#X connect 27 1 28 0;
#X connect 28 0 26 1;
#X connect 29 0 31 0;
#X connect 30 0 40 1;
#X connect 31 0 30 0;
#X connect 31 1 32 0;
#X connect 32 0 30 1;
#X connect 33 0 35 0;
#X connect 34 0 41 1;
#X connect 35 0 34 0;
#X connect 35 1 36 0;
#X connect 36 0 34 1;
#X connect 37 0 15 0;
#X connect 37 0 21 0;
#X connect 37 0 25 0;
#X connect 37 0 29 0;
#X connect 37 0 33 0;
#X connect 37 2 33 0;
#X connect 38 0 15 0;
#X connect 38 1 21 0;
#X connect 38 2 25 0;
#X connect 38 3 29 0;
#X connect 38 4 25 0;
#X connect 38 5 21 0;
#X connect 38 6 15 0;
#X connect 38 7 17 0;
#X connect 39 0 42 0;
#X connect 40 0 41 0;
#X connect 41 0 42 1;
#X connect 42 0 43 0;
#X connect 43 0 44 0;
#X restore 657 444 pd synth;
#X obj 928 388 v _damp;
#X obj 973 360 v _cadence;
#X obj 1316 259 v f5;
#X obj 1316 234 mtof;
#X obj 1278 258 v f4;
#X obj 1278 234 mtof;
#X obj 1241 234 mtof;
#X obj 1204 234 mtof;
#X obj 1167 235 mtof;
#X obj 1167 259 v f1;
#X obj 1204 258 v f2;
#X obj 1241 258 v f3;
#X obj 883 409 v f5;
#X obj 838 409 v f4;
#X obj 792 408 v f3;
#X obj 747 408 v f2;
#X obj 702 409 v f1;
#X obj 657 500 outlet~, f 11;
#X obj 543 616 list;
#X obj 1215 537 symbol;
#X msg 1215 483 23 23 23 24;
#X symbolatom 1218 601 10 0 0 0 - - -, f 10;
#X obj 958 607 v;
#X connect 0 0 3 0;
#X connect 1 0 20 0;
#X connect 2 0 7 0;
#X connect 3 0 4 0;
#X connect 3 1 4 0;
#X connect 4 0 1 0;
#X connect 5 0 13 0;
#X connect 6 0 14 0;
#X connect 10 0 11 0;
#X connect 11 0 17 0;
#X connect 11 1 17 1;
#X connect 11 2 17 2;
#X connect 11 3 17 3;
#X connect 11 4 17 4;
#X connect 12 0 16 1;
#X connect 13 0 8 0;
#X connect 14 0 9 0;
#X connect 15 0 16 0;
#X connect 15 1 12 0;
#X connect 16 0 25 0;
#X connect 17 0 35 0;
#X connect 17 1 34 0;
#X connect 17 2 33 0;
#X connect 17 3 32 0;
#X connect 17 4 30 0;
#X connect 19 0 15 0;
#X connect 21 0 18 0;
#X connect 21 1 22 0;
#X connect 23 0 24 0;
#X connect 25 0 26 0;
#X connect 25 1 39 0;
#X connect 25 1 40 0;
#X connect 25 1 41 0;
#X connect 25 1 42 0;
#X connect 25 1 43 0;
#X connect 25 2 27 0;
#X connect 25 3 28 0;
#X connect 26 0 44 0;
#X connect 27 0 26 6;
#X connect 28 0 26 7;
#X connect 30 0 29 0;
#X connect 32 0 31 0;
#X connect 33 0 38 0;
#X connect 34 0 37 0;
#X connect 35 0 36 0;
#X connect 39 0 26 5;
#X connect 40 0 26 4;
#X connect 41 0 26 3;
#X connect 42 0 26 2;
#X connect 43 0 26 1;
#X connect 46 0 48 0;
#X connect 47 0 46 0;
#X restore 777 493 pd synth;
#X obj 798 251 v key;
#X obj 777 223 v state;
#X text 746 99 Feed the synth with new state;
#X obj 527 154 r init;
#X obj 488 681 s runSynth;
#X obj 839 339 sel 1 2 3 4 5 6;
#X obj 839 309 v command;
#X obj 819 276 v tempo;
#X obj 801 161 r init;
#N canvas 393 270 1438 788 logger 0;
#X msg 466 421 list /state state: \$1, f 7;
#X obj 272 388 v gyroX;
#X obj 336 388 v gyroY;
#X obj 402 388 v gyroZ;
#X obj 298 435 pack 0 0 0;
#X msg 298 480 list /normGyro x: \$1 y: \$2 z: \$3, f 15;
#X obj 585 391 v command;
#X msg 585 425 list /command command: \$1, f 9;
#X obj 697 551 send toGUI;
#X obj 466 388 v state;
#X obj 310 309 r logGyro;
#X obj 310 346 t b b b;
#X obj 481 317 r logState;
#X obj 466 352 t b;
#X obj 585 318 r logCommand;
#X obj 585 357 t b;
#X obj 697 353 t b;
#X obj 697 380 v gyroGate;
#X msg 697 413 list /gyroGate Gyroscope listener: \$1, f 10;
#X obj 697 318 r logGyroGate;
#X obj 663 138 r logVariables;
#X obj 831 316 r logKey;
#X obj 918 315 r logTempo;
#X obj 831 347 t b;
#X obj 918 348 t b;
#X obj 831 378 v key;
#X obj 918 382 v tempo;
#X msg 831 418 list /key Key: \$1, f 5;
#X msg 918 417 list /tempo Tempo: \$1, f 6;
#X obj 1017 314 r logCadence;
#X obj 1017 348 t b;
#X obj 1017 384 v cadence;
#X msg 1017 419 list /cadence Cadence: \$1, f 6;
#X obj 663 168 t b b b b b;
#X obj 309 143 r logAll;
#X obj 309 170 t b b b b b b b;
#X connect 0 0 8 0;
#X connect 1 0 4 0;
#X connect 2 0 4 1;
#X connect 3 0 4 2;
#X connect 4 0 5 0;
#X connect 5 0 8 0;
#X connect 6 0 7 0;
#X connect 7 0 8 0;
#X connect 9 0 0 0;
#X connect 10 0 11 0;
#X connect 11 0 1 0;
#X connect 11 1 2 0;
#X connect 11 2 3 0;
#X connect 12 0 13 0;
#X connect 13 0 9 0;
#X connect 14 0 15 0;
#X connect 15 0 6 0;
#X connect 16 0 17 0;
#X connect 17 0 18 0;
#X connect 18 0 8 0;
#X connect 19 0 16 0;
#X connect 20 0 33 0;
#X connect 21 0 23 0;
#X connect 22 0 24 0;
#X connect 23 0 25 0;
#X connect 24 0 26 0;
#X connect 25 0 27 0;
#X connect 26 0 28 0;
#X connect 27 0 8 0;
#X connect 28 0 8 0;
#X connect 29 0 30 0;
#X connect 30 0 31 0;
#X connect 31 0 32 0;
#X connect 32 0 8 0;
#X connect 33 0 13 0;
#X connect 33 1 15 0;
#X connect 33 2 23 0;
#X connect 33 3 24 0;
#X connect 33 4 30 0;
#X connect 34 0 35 0;
#X connect 35 0 11 0;
#X connect 35 1 13 0;
#X connect 35 2 15 0;
#X connect 35 3 16 0;
#X connect 35 4 23 0;
#X connect 35 5 24 0;
#X connect 35 6 30 0;
#X coords 0 788 1 787 79 28 0;
#X restore 1026 653 pd logger;
#X text 22 27 Listen to gyroscope input;
#N canvas 0 50 1320 650 init 0;
#X msg 544 138 0, f 1;
#X msg 570 138 1, f 1;
#X obj 570 306 v key;
#X obj 570 228 v state;
#X obj 493 382 s init;
#X obj 597 282 v command;
#X obj 469 412 s logAll;
#X obj 570 173 t f f;
#X obj 607 202 v gyroGate;
#X obj 469 110 t b b b b b, f 13;
#X obj 518 354 v tempo;
#X msg 519 138 50, f 2;
#X obj 469 62 inlet;
#X obj 544 256 t f f f;
#X obj 544 328 v cadence;
#X connect 0 0 13 0;
#X connect 1 0 7 0;
#X connect 7 0 3 0;
#X connect 7 1 8 0;
#X connect 9 0 6 0;
#X connect 9 1 4 0;
#X connect 9 2 11 0;
#X connect 9 3 0 0;
#X connect 9 4 1 0;
#X connect 11 0 10 0;
#X connect 12 0 9 0;
#X connect 13 0 14 0;
#X connect 13 1 2 0;
#X connect 13 2 5 0;
#X restore 1029 740 pd init;
#X obj 917 368 v gyroX;
#X obj 878 395 v gyroY;
#X obj 839 422 v gyroZ;
#X obj 777 566 dac~;
#X obj 862 463 v cadence;
#X obj 777 189 t b b b b b;
#X obj 485 184 t b b, f 11;
#X obj 511 333 s logState;
#N canvas -8 -8 1536 781 parseState 1;
#X obj 118 177 select 2 3;
#X obj 299 179 select 4 5 6 7;
#X obj 92 49 inlet;
#X obj 521 180 select 8 9 10 11;
#X obj 760 183 select 12 13 14 15;
#X obj 1002 184 select 16 17 18;
#X obj 1243 184 select 19 20 21;
#X msg 156 212 45 48 52 57 69;
#X msg 118 270 60 64 67 72 48;
#X msg 299 371 60 65 69 72 53;
#X msg 326 318 62 65 69 72 50;
#X msg 353 262 45 48 53 57 65;
#X msg 380 207 45 50 53 57 65;
#X msg 521 384 62 65 67 71 55;
#X msg 552 326 62 66 69 72 50;
#X msg 583 266 62 66 69 72 50;
#X msg 614 212 62 65 67 71 55;
#X msg 760 381 47 50 52 56 64;
#X msg 795 327 45 49 52 55 61;
#X msg 830 268 45 49 52 55 61;
#X msg 865 214 47 50 52 56 64;
#X msg 1055 519 60 64 67 72 48;
#X msg 1078 401 60 64 67 72 48;
#X msg 1117 242 45 48 52 57 69;
#X msg 1280 601 60 64 67 72 48;
#X msg 1319 480 45 48 52 57 69;
#X msg 1374 251 45 48 52 57 69;
#X obj 1080 294 v _tempo;
#X obj 1080 320 + 10;
#X obj 138 469 v _key;
#X obj 180 49 inlet;
#X obj 265 50 inlet;
#X obj 156 238 v _notes;
#X obj 118 296 v _notes;
#X obj 380 233 v _notes;
#X obj 353 288 v _notes;
#X obj 326 344 v _notes;
#X obj 299 397 v _notes;
#X obj 614 238 v _notes;
#X obj 583 292 v _notes;
#X obj 552 352 v _notes;
#X obj 521 410 v _notes;
#X obj 865 240 v _notes;
#X obj 830 294 v _notes;
#X obj 795 353 v _notes;
#X obj 760 407 v _notes;
#X obj 1117 268 v _notes;
#X obj 1078 427 v _notes;
#X obj 1055 548 v _notes;
#X obj 1374 277 v _notes;
#X obj 1319 506 v _notes;
#X obj 1280 627 v _notes;
#X obj 92 386 t b b b b;
#X obj 1002 489 t b b b;
#X obj 180 82 v _tempo;
#X obj 265 82 v _key;
#X obj 92 84 t b f b;
#X msg 145 114 0, f 1;
#X obj 145 144 v _cadence;
#X obj 1028 577 v _cadence;
#X obj 1002 606 v _key;
#X msg 1028 548 1, f 1;
#X obj 1002 637 + 7;
#X obj 1002 664 mod 12;
#X obj 1002 695 v _key;
#X obj 1041 372 t b b;
#X obj 1041 461 v _cadence;
#X msg 1041 427 1, f 1;
#X obj 1080 211 t b b;
#X obj 1080 347 v _tempo;
#X obj 1243 566 t b b;
#X obj 1243 652 v _tempo;
#X obj 1243 678 + 10;
#X obj 1243 705 v _tempo;
#X obj 1282 447 t b b;
#X obj 1282 536 v _cadence;
#X msg 1282 506 1, f 1;
#X obj 1321 220 t b b b;
#X obj 1347 307 v _cadence;
#X msg 1347 278 1, f 1;
#X obj 1321 333 v _key;
#X obj 1321 391 mod 12;
#X obj 1321 422 v _key;
#X obj 1321 364 + 5;
#X obj 161 413 v _cadence;
#X obj 115 526 v _tempo;
#X obj 92 580 v _notes;
#X obj 161 441 outlet;
#X obj 138 499 outlet;
#X obj 115 554 outlet;
#X obj 92 608 outlet;
#X connect 0 0 8 0;
#X connect 0 1 7 0;
#X connect 0 2 1 0;
#X connect 1 0 9 0;
#X connect 1 1 10 0;
#X connect 1 2 11 0;
#X connect 1 3 12 0;
#X connect 1 4 3 0;
#X connect 2 0 56 0;
#X connect 3 0 13 0;
#X connect 3 1 14 0;
#X connect 3 2 15 0;
#X connect 3 3 16 0;
#X connect 3 4 4 0;
#X connect 4 0 17 0;
#X connect 4 1 18 0;
#X connect 4 2 19 0;
#X connect 4 3 20 0;
#X connect 4 4 5 0;
#X connect 5 0 53 0;
#X connect 5 1 65 0;
#X connect 5 2 68 0;
#X connect 5 3 6 0;
#X connect 6 0 70 0;
#X connect 6 1 74 0;
#X connect 6 2 77 0;
#X connect 7 0 32 0;
#X connect 8 0 33 0;
#X connect 9 0 37 0;
#X connect 10 0 36 0;
#X connect 11 0 35 0;
#X connect 12 0 34 0;
#X connect 13 0 41 0;
#X connect 14 0 40 0;
#X connect 15 0 39 0;
#X connect 16 0 38 0;
#X connect 17 0 45 0;
#X connect 18 0 44 0;
#X connect 19 0 43 0;
#X connect 20 0 42 0;
#X connect 21 0 48 0;
#X connect 22 0 47 0;
#X connect 23 0 46 0;
#X connect 24 0 51 0;
#X connect 25 0 50 0;
#X connect 26 0 49 0;
#X connect 27 0 28 0;
#X connect 28 0 69 0;
#X connect 29 0 88 0;
#X connect 30 0 54 0;
#X connect 31 0 55 0;
#X connect 52 0 86 0;
#X connect 52 1 85 0;
#X connect 52 2 29 0;
#X connect 52 3 84 0;
#X connect 53 0 60 0;
#X connect 53 1 61 0;
#X connect 53 2 21 0;
#X connect 56 0 52 0;
#X connect 56 1 0 0;
#X connect 56 2 57 0;
#X connect 57 0 58 0;
#X connect 60 0 62 0;
#X connect 61 0 59 0;
#X connect 62 0 63 0;
#X connect 63 0 64 0;
#X connect 65 0 67 0;
#X connect 65 1 22 0;
#X connect 67 0 66 0;
#X connect 68 0 27 0;
#X connect 68 1 23 0;
#X connect 70 0 71 0;
#X connect 70 1 24 0;
#X connect 71 0 72 0;
#X connect 72 0 73 0;
#X connect 74 0 76 0;
#X connect 74 1 25 0;
#X connect 76 0 75 0;
#X connect 77 0 80 0;
#X connect 77 1 79 0;
#X connect 77 2 26 0;
#X connect 79 0 78 0;
#X connect 80 0 83 0;
#X connect 81 0 82 0;
#X connect 83 0 81 0;
#X connect 84 0 87 0;
#X connect 85 0 89 0;
#X connect 86 0 90 0;
#X restore 485 457 pd parseState;
#X obj 586 431 v key;
#X obj 535 407 v tempo;
#X obj 485 388 v state;
#X obj 485 360 t b b b, f 13;
#X obj 586 486 v cadence;
#X obj 552 510 v key;
#X obj 518 536 v tempo;
#X obj 522 596 s logVariables;
#X obj 1230 151 v some;
#X msg 1219 111 13 40 50 60;
#X msg 1347 139 bang;
#X obj 1231 213 print;
#X obj 485 565 t l b;
#X obj 707 679 pack;
#X connect 0 0 1 0;
#X connect 1 0 29 0;
#X connect 2 0 3 0;
#X connect 3 0 4 0;
#X connect 4 0 37 0;
#X connect 4 1 13 0;
#X connect 5 0 26 0;
#X connect 6 0 15 0;
#X connect 6 1 7 0;
#X connect 6 2 8 0;
#X connect 6 3 9 0;
#X connect 6 4 33 0;
#X connect 13 0 10 0;
#X connect 13 1 11 0;
#X connect 13 2 12 0;
#X connect 14 0 5 0;
#X connect 15 0 34 0;
#X connect 15 1 32 0;
#X connect 20 0 5 1;
#X connect 21 0 52 0;
#X connect 23 0 52 0;
#X connect 26 0 65 0;
#X connect 26 1 60 0;
#X connect 26 2 22 0;
#X connect 27 0 28 0;
#X connect 28 0 6 2;
#X connect 29 0 24 0;
#X connect 30 0 18 0;
#X connect 30 1 17 0;
#X connect 30 2 16 0;
#X connect 32 0 30 0;
#X connect 35 0 59 0;
#X connect 36 0 6 1;
#X connect 37 0 6 0;
#X connect 37 1 36 0;
#X connect 37 2 31 0;
#X connect 39 0 58 0;
#X connect 40 0 56 0;
#X connect 40 0 56 1;
#X connect 41 0 40 1;
#X connect 42 0 40 0;
#X connect 44 0 59 0;
#X connect 46 0 55 0;
#X connect 46 1 55 0;
#X connect 46 2 54 0;
#X connect 46 3 54 0;
#X connect 46 4 53 0;
#X connect 46 5 53 0;
#X connect 47 0 46 0;
#X connect 48 0 40 2;
#X connect 49 0 58 0;
#X connect 53 0 40 3;
#X connect 54 0 40 3;
#X connect 55 0 40 3;
#X connect 57 0 40 4;
#X connect 58 0 42 0;
#X connect 58 1 41 0;
#X connect 58 2 48 0;
#X connect 58 3 47 0;
#X connect 58 4 57 0;
#X connect 59 0 14 0;
#X connect 59 1 20 0;
#X connect 61 0 74 0;
#X connect 61 1 68 0;
#X connect 61 2 67 0;
#X connect 61 3 66 0;
#X connect 62 0 61 2;
#X connect 63 0 61 1;
#X connect 64 0 61 0;
#X connect 65 0 64 0;
#X connect 65 1 63 0;
#X connect 65 2 62 0;
#X connect 70 0 73 0;
#X connect 71 0 70 0;
#X connect 72 0 70 0;
#X connect 74 1 69 0;
