#N canvas -8 -8 1536 781 12;
#X obj 702 6 receive fromGUI;
#X obj 702 37 list trim;
#X obj 702 72 route /start;
#X obj 908 82 receive fromSystem;
#X obj 908 108 list trim;
#X obj 616 702 send toGUI;
#X obj 702 134 s gateVal;
#X obj 908 137 route /gyro /accel;
#X obj 416 701 send toGUI;
#X obj 280 603 pack 0 0 0;
#X obj 36 605 pack 0 0 0;
#N canvas 27 50 1536 806 automata 0;
#X obj 334 220 route 1;
#X obj 469 220 route 2 3;
#X obj 622 221 route 4 5 6 7;
#X obj 784 221 route 8 9 10 11 12 13 14 15;
#X msg 334 280 2;
#X msg 360 279 3;
#X msg 469 279 4;
#X msg 495 279 5;
#X obj 334 252 sel 1 2;
#X obj 469 252 sel 3 4;
#X obj 503 332 sel 3 4;
#X msg 503 362 6;
#X msg 529 362 7;
#X obj 622 262 sel 5 6;
#X msg 622 292 8;
#X msg 648 292 9;
#X obj 643 333 sel 5 6;
#X msg 643 363 10;
#X msg 669 363 11;
#X obj 667 403 sel 5 6;
#X msg 667 433 12;
#X msg 693 433 13;
#X obj 697 467 sel 5 6;
#X msg 697 497 14;
#X msg 723 497 15;
#X obj 784 256 sel 1 2;
#X obj 807 316 sel 1 2;
#X obj 830 373 sel 1 2;
#X obj 854 429 sel 1 2;
#X obj 886 489 sel 1 2;
#X obj 906 546 sel 1 2;
#X obj 925 605 sel 1 2;
#X obj 953 664 sel 1 2;
#X obj 1061 223 route 16 17 18 19;
#X msg 784 286 17;
#X msg 810 286 18;
#X msg 807 346 16;
#X msg 833 346 18;
#X msg 831 403 16;
#X msg 856 403 18;
#X msg 854 459 17;
#X msg 880 459 18;
#X obj 1081 287 sel 3 4;
#X obj 1104 352 sel 3 4;
#X obj 1126 428 sel 3 4;
#X obj 1159 492 sel 3 4;
#X msg 1081 317 4;
#X msg 1107 317 5;
#X msg 1102 388 4;
#X msg 1128 388 5;
#X msg 1126 458 6;
#X msg 1152 458 7;
#X msg 1156 522 6;
#X msg 1182 522 7;
#X obj 1081 580 s newstate;
#X obj 337 329 s newstate;
#X obj 472 416 s newstate;
#X obj 621 589 s newstate;
#X obj 768 736 s newstate;
#X floatatom 245 193 5 0 0 0 - - -, f 5;
#X obj 239 129 r newstate;
#X obj 239 219 pack 0 0;
#X obj 261 49 inlet;
#X obj 261 81 t b f;
#X msg 239 157 set \$1;
#X obj 285 598 r newstate;
#X obj 287 652 outlet;
#X obj 471 57 inlet;
#X obj 471 91 s newstate;
#X msg 886 519 17;
#X msg 912 519 19;
#X msg 906 576 17;
#X msg 932 576 18;
#X msg 925 635 17;
#X msg 951 635 18;
#X msg 953 694 17;
#X msg 979 694 19;
#X connect 0 0 8 0;
#X connect 0 1 1 0;
#X connect 1 0 9 0;
#X connect 1 1 10 0;
#X connect 1 2 2 0;
#X connect 2 0 13 0;
#X connect 2 1 16 0;
#X connect 2 2 19 0;
#X connect 2 3 22 0;
#X connect 2 4 3 0;
#X connect 3 0 25 0;
#X connect 3 1 26 0;
#X connect 3 2 27 0;
#X connect 3 3 28 0;
#X connect 3 4 29 0;
#X connect 3 5 30 0;
#X connect 3 6 31 0;
#X connect 3 7 32 0;
#X connect 3 8 33 0;
#X connect 4 0 55 0;
#X connect 5 0 55 0;
#X connect 6 0 56 0;
#X connect 7 0 56 0;
#X connect 8 0 4 0;
#X connect 8 1 5 0;
#X connect 9 0 6 0;
#X connect 9 1 7 0;
#X connect 10 0 11 0;
#X connect 10 1 12 0;
#X connect 11 0 56 0;
#X connect 12 0 56 0;
#X connect 13 0 14 0;
#X connect 13 1 15 0;
#X connect 14 0 57 0;
#X connect 15 0 57 0;
#X connect 16 0 17 0;
#X connect 16 1 18 0;
#X connect 17 0 57 0;
#X connect 18 0 57 0;
#X connect 19 0 20 0;
#X connect 19 1 21 0;
#X connect 20 0 57 0;
#X connect 21 0 57 0;
#X connect 22 0 23 0;
#X connect 22 1 24 0;
#X connect 23 0 57 0;
#X connect 24 0 57 0;
#X connect 25 0 34 0;
#X connect 25 1 35 0;
#X connect 26 0 36 0;
#X connect 26 1 37 0;
#X connect 27 0 38 0;
#X connect 27 1 39 0;
#X connect 28 0 40 0;
#X connect 28 1 41 0;
#X connect 29 0 69 0;
#X connect 29 1 70 0;
#X connect 30 0 71 0;
#X connect 30 1 72 0;
#X connect 31 0 73 0;
#X connect 31 1 74 0;
#X connect 32 0 75 0;
#X connect 32 1 76 0;
#X connect 33 0 42 0;
#X connect 33 1 43 0;
#X connect 33 2 44 0;
#X connect 33 3 45 0;
#X connect 34 0 58 0;
#X connect 35 0 58 0;
#X connect 36 0 58 0;
#X connect 37 0 58 0;
#X connect 38 0 58 0;
#X connect 39 0 58 0;
#X connect 40 0 58 0;
#X connect 41 0 58 0;
#X connect 42 0 46 0;
#X connect 42 1 47 0;
#X connect 43 0 48 0;
#X connect 43 1 49 0;
#X connect 44 0 50 0;
#X connect 44 1 51 0;
#X connect 45 0 52 0;
#X connect 45 1 53 0;
#X connect 46 0 54 0;
#X connect 47 0 54 0;
#X connect 48 0 54 0;
#X connect 49 0 54 0;
#X connect 50 0 54 0;
#X connect 51 0 54 0;
#X connect 52 0 54 0;
#X connect 53 0 54 0;
#X connect 59 0 61 0;
#X connect 60 0 64 0;
#X connect 61 0 0 0;
#X connect 62 0 63 0;
#X connect 63 0 59 0;
#X connect 63 1 61 1;
#X connect 64 0 59 0;
#X connect 65 0 66 0;
#X connect 67 0 68 0;
#X connect 69 0 58 0;
#X connect 70 0 58 0;
#X connect 71 0 58 0;
#X connect 72 0 58 0;
#X connect 73 0 58 0;
#X connect 74 0 58 0;
#X connect 75 0 58 0;
#X connect 76 0 58 0;
#X restore 337 123 pd automata;
#X obj 544 414 loadbang;
#X obj 853 341 s command;
#X obj 337 92 r command;
#X obj 337 157 s state;
#X obj 146 281 r state;
#N canvas -8 -8 1536 781 synth 1;
#X obj 665 711 dac~;
#X obj 673 610 vline~;
#X obj 84 50 inlet;
#X msg 201 183 60 64 67 72;
#X obj 201 142 select 2 3;
#X obj 429 140 select 4 5 6 7;
#X msg 429 184 60 65 69 72;
#X msg 539 183 60 62 65 69;
#X obj 766 138 select 8 9 10 11 12 13 14 15;
#X msg 766 182 62 65 67 71;
#X msg 881 183 60 62 66 69;
#X msg 881 219 59 62 65 67;
#X msg 428 222 57 60 65 69;
#X msg 879 263 59 62 64 68;
#X obj 800 575 mtof;
#X obj 674 659 *~;
#X obj 84 103 change 1;
#X obj 273 462 f;
#X obj 309 462 + 1;
#X obj 620 514 f;
#X obj 669 512 f;
#X obj 714 511 f;
#X obj 761 512 f;
#X obj 271 538 t f f;
#X obj 650 334 unpack 0 0 0 0;
#X obj 1150 136 select 16 17 18 19;
#X msg 1220 174 57 60 64 69;
#X obj 273 426 bng 15 250 50 0 empty empty empty 17 7 0 10 -262144
-1 -1;
#X floatatom 203 600 5 0 0 0 - - -, f 5;
#X msg 187 430 0;
#X obj 273 393 metro 83;
#X msg 768 261 57 61 64 67;
#X msg 539 221 57 62 65 69;
#X obj 284 279 s chord;
#X obj 474 259 s chord;
#X obj 863 307 s chord;
#X obj 1213 254 s chord;
#X obj 613 275 r chord;
#X msg 673 574 1 50 \, 0 83 50;
#X obj 613 304 t b l;
#X obj 1130 242 + 7;
#X obj 1130 274 mod 12;
#X obj 1093 168 t b b;
#X obj 1130 206 v key;
#X obj 1240 328 v key;
#X obj 1382 276 mod 12;
#X obj 1345 170 t b b;
#X obj 1382 208 v key;
#X obj 1382 244 + 5;
#X obj 203 53 inlet;
#X obj 204 109 v key;
#X obj 1159 307 t b f;
#X obj 1328 304 t b f;
#X obj 800 614 phasor~;
#X obj 650 365 expr $f1+key \; $f2+key \; $f3+key \; $f4+key;
#X obj 203 78 t b f;
#N canvas -8 -8 1536 781 pluck 1;
#X msg 284 233 0;
#X floatatom 438 282 5 0 0 0 - - -, f 5;
#X obj 70 161 noise~;
#X obj 72 270 *~;
#X msg 155 206 1;
#X obj 309 106 t b b f;
#X obj 438 253 expr 1000 / $f1;
#N canvas 0 50 1536 781 delay 0;
#X obj 1245 200 vd~ buff2;
#X obj 1065 468 delwrite~ buff2 1000;
#X obj 1066 390 inlet~;
#X obj 1245 149 inlet~;
#X obj 1245 467 outlet~;
#X obj 1148 201 block~ 1;
#X obj 1065 427 +~;
#X obj 1018 317 f;
#X obj 1171 246 env~;
#X floatatom 1160 280 5 0 0 0 - - -, f 5;
#X obj 1112 264 t b f;
#X obj 1021 292 spigot;
#X obj 1050 317 + 1;
#X floatatom 1013 341 5 0 0 0 - - -, f 5;
#X msg 971 322 0;
#X obj 1250 323 *~ 0.98;
#X connect 0 0 15 0;
#X connect 2 0 6 0;
#X connect 3 0 0 0;
#X connect 6 0 1 0;
#X connect 7 0 12 0;
#X connect 7 0 13 0;
#X connect 8 0 10 0;
#X connect 9 0 11 1;
#X connect 10 0 11 0;
#X connect 10 1 9 0;
#X connect 11 0 7 0;
#X connect 12 0 7 1;
#X connect 14 0 7 0;
#X connect 15 0 4 0;
#X connect 15 0 6 1;
#X restore 72 409 pd delay;
#X obj 284 205 del 8;
#X text 375 178 change pulse length;
#X obj 71 199 lop~ 1200;
#X obj 438 309 t f f;
#X obj 321 54 inlet;
#X obj 66 552 outlet~;
#X msg 337 173 30;
#X obj 73 492 *~ 1;
#X connect 0 0 3 1;
#X connect 1 0 11 0;
#X connect 2 0 10 0;
#X connect 3 0 7 0;
#X connect 4 0 3 1;
#X connect 5 0 4 0;
#X connect 5 1 8 0;
#X connect 5 2 6 0;
#X connect 6 0 1 0;
#X connect 7 0 15 0;
#X connect 8 0 0 0;
#X connect 10 0 3 0;
#X connect 11 0 8 1;
#X connect 11 1 7 1;
#X connect 12 0 5 0;
#X connect 14 0 8 1;
#X connect 15 0 13 0;
#X restore 752 665 pd pluck;
#X floatatom 1242 371 5 0 0 0 - - -, f 5;
#X msg 1188 201 60 64 67 72;
#X msg 306 183 57 60 64 69;
#X obj 636 467 select 0 1 2 3 4 5 6 7;
#X obj 130 483 select 7;
#X obj 271 500 mod 8;
#X msg 358 66 16;
#X obj 255 232 t b f;
#X obj 178 278 s sequencer;
#X obj 273 350 r sequencer;
#X connect 1 0 15 0;
#X connect 2 0 16 0;
#X connect 4 0 3 0;
#X connect 4 1 59 0;
#X connect 4 2 5 0;
#X connect 5 0 6 0;
#X connect 5 1 7 0;
#X connect 5 2 12 0;
#X connect 5 3 32 0;
#X connect 5 4 8 0;
#X connect 6 0 34 0;
#X connect 7 0 34 0;
#X connect 8 0 9 0;
#X connect 8 1 10 0;
#X connect 8 2 10 0;
#X connect 8 3 11 0;
#X connect 8 4 31 0;
#X connect 8 5 13 0;
#X connect 8 6 13 0;
#X connect 8 7 31 0;
#X connect 8 8 25 0;
#X connect 9 0 35 0;
#X connect 10 0 35 0;
#X connect 11 0 35 0;
#X connect 12 0 34 0;
#X connect 13 0 35 0;
#X connect 14 0 56 0;
#X connect 14 0 53 0;
#X connect 16 0 4 0;
#X connect 17 0 18 0;
#X connect 17 0 62 0;
#X connect 18 0 17 1;
#X connect 19 0 14 0;
#X connect 19 0 38 0;
#X connect 20 0 14 0;
#X connect 20 0 38 0;
#X connect 21 0 14 0;
#X connect 21 0 38 0;
#X connect 22 0 14 0;
#X connect 22 0 38 0;
#X connect 23 0 28 0;
#X connect 23 0 61 0;
#X connect 23 1 60 0;
#X connect 24 0 54 0;
#X connect 24 1 54 1;
#X connect 24 2 54 2;
#X connect 24 3 54 3;
#X connect 25 0 42 0;
#X connect 25 1 58 0;
#X connect 25 2 26 0;
#X connect 25 3 46 0;
#X connect 26 0 36 0;
#X connect 27 0 17 0;
#X connect 29 0 17 1;
#X connect 29 0 30 0;
#X connect 30 0 27 0;
#X connect 31 0 35 0;
#X connect 32 0 34 0;
#X connect 37 0 39 0;
#X connect 38 0 1 0;
#X connect 39 0 30 0;
#X connect 39 1 24 0;
#X connect 40 0 41 0;
#X connect 41 0 51 0;
#X connect 42 0 58 0;
#X connect 42 1 43 0;
#X connect 43 0 40 0;
#X connect 44 0 57 0;
#X connect 45 0 52 0;
#X connect 46 0 26 0;
#X connect 46 1 47 0;
#X connect 47 0 48 0;
#X connect 48 0 45 0;
#X connect 49 0 55 0;
#X connect 51 0 44 0;
#X connect 51 1 44 0;
#X connect 52 0 44 0;
#X connect 52 1 44 0;
#X connect 53 0 15 1;
#X connect 54 0 19 1;
#X connect 54 1 20 1;
#X connect 54 2 21 1;
#X connect 54 3 22 1;
#X connect 55 0 50 0;
#X connect 55 1 50 0;
#X connect 56 0 0 0;
#X connect 56 0 0 1;
#X connect 58 0 36 0;
#X connect 60 1 19 0;
#X connect 60 2 20 0;
#X connect 60 3 21 0;
#X connect 60 4 22 0;
#X connect 60 5 21 0;
#X connect 60 6 20 0;
#X connect 60 7 19 0;
#X connect 61 0 29 0;
#X connect 62 0 23 0;
#X connect 63 0 4 0;
#X connect 64 0 65 0;
#X connect 64 1 33 0;
#X connect 66 0 30 0;
#X restore 146 319 pd synth;
#X obj 615 625 r state;
#X msg 700 102 1;
#X msg 264 301 0;
#X obj 819 632 r command;
#X msg 615 669 list /state state: \$1;
#X msg 819 668 list /command command: \$1;
#X obj 819 708 send toGUI;
#N canvas -8 -8 1536 781 cookGyro 1;
#X obj 513 53 unpack 0 0 0;
#X obj 559 109 / 3.1416;
#X obj 696 110 / 3.1416;
#X obj 409 106 / 3.1416;
#X obj 400 411 > 0.55;
#X obj 646 417 < -0.55;
#X obj 803 421 < -0.55;
#X obj 562 415 > 0.55;
#X obj 400 218 expr $f1*(abs($f1)>abs($f2))*(abs($f1)>abs($f3)) \;
$f2*(abs($f2)>abs($f1))*(abs($f2)>abs($f3)) \; $f3*(abs($f3)>abs($f1))*(abs($f3)>abs($f2))
\;;
#X obj 480 413 > 0.95;
#X obj 729 421 < -0.95;
#X obj 445 310 r gateVal;
#X msg 646 559 6;
#X msg 802 560 1;
#X obj 409 135 t f f;
#X obj 559 136 t f f;
#X obj 696 140 t f f;
#X msg 562 559 2;
#X msg 480 559 3;
#X msg 400 559 5;
#X msg 729 560 4;
#X obj 400 338 spigot;
#X obj 594 336 spigot;
#X obj 639 310 r gateVal;
#X obj 789 347 spigot;
#X obj 834 321 r gateVal;
#X obj 803 450 sel 1;
#X obj 729 451 sel 1;
#X obj 646 447 sel 1;
#X obj 562 444 sel 1;
#X obj 480 443 sel 1;
#X obj 400 442 sel 1;
#X obj 400 469 t b b;
#X obj 480 469 t b b;
#X obj 562 468 t b b;
#X obj 646 474 t b b;
#X obj 729 476 t b b;
#X obj 802 476 t b b;
#X msg 878 612 0;
#X msg 926 641 1;
#X obj 926 610 delay 500;
#X obj 878 673 s gateVal;
#X obj 513 12 inlet;
#X obj 400 710 outlet;
#X obj 879 560 bng 15 250 50 0 empty empty empty 17 7 0 10 -262144
-1 -1;
#X obj 446 191 outlet;
#X obj 596 191 outlet;
#X obj 733 168 clip -1 1;
#X obj 733 195 outlet;
#X obj 596 162 clip -1 1;
#X obj 446 164 clip -1 1;
#X connect 0 0 3 0;
#X connect 0 1 1 0;
#X connect 0 2 2 0;
#X connect 1 0 15 0;
#X connect 2 0 16 0;
#X connect 3 0 14 0;
#X connect 4 0 31 0;
#X connect 5 0 28 0;
#X connect 6 0 26 0;
#X connect 7 0 29 0;
#X connect 8 0 21 0;
#X connect 8 1 22 0;
#X connect 8 2 24 0;
#X connect 9 0 30 0;
#X connect 10 0 27 0;
#X connect 11 0 21 1;
#X connect 12 0 43 0;
#X connect 13 0 43 0;
#X connect 14 0 8 0;
#X connect 14 1 50 0;
#X connect 15 0 8 1;
#X connect 15 1 49 0;
#X connect 16 0 8 2;
#X connect 16 1 47 0;
#X connect 17 0 43 0;
#X connect 18 0 43 0;
#X connect 19 0 43 0;
#X connect 20 0 43 0;
#X connect 21 0 4 0;
#X connect 21 0 5 0;
#X connect 22 0 9 0;
#X connect 22 0 10 0;
#X connect 23 0 22 1;
#X connect 24 0 7 0;
#X connect 24 0 6 0;
#X connect 25 0 24 1;
#X connect 26 0 37 0;
#X connect 27 0 36 0;
#X connect 28 0 35 0;
#X connect 29 0 34 0;
#X connect 30 0 33 0;
#X connect 31 0 32 0;
#X connect 32 0 19 0;
#X connect 32 1 44 0;
#X connect 33 0 18 0;
#X connect 33 1 44 0;
#X connect 34 0 17 0;
#X connect 34 1 44 0;
#X connect 35 0 12 0;
#X connect 35 1 44 0;
#X connect 36 0 20 0;
#X connect 36 1 44 0;
#X connect 37 0 13 0;
#X connect 37 1 44 0;
#X connect 38 0 41 0;
#X connect 39 0 41 0;
#X connect 40 0 39 0;
#X connect 42 0 0 0;
#X connect 44 0 40 0;
#X connect 44 0 38 0;
#X connect 47 0 48 0;
#X connect 49 0 46 0;
#X connect 50 0 45 0;
#X restore 908 170 pd cookGyro;
#X obj 908 285 t f f;
#X obj 945 342 change 0;
#X obj 936 205 v gyroX;
#X obj 964 235 v gyroY;
#X obj 993 263 v gyroZ;
#X obj 945 382 bng 15 250 50 0 empty empty empty 17 7 0 10 -262144
-1 -1;
#X obj 887 430 v gyroX;
#X obj 962 430 v gyroY;
#X obj 1037 430 v gyroZ;
#X obj 1174 217 v accelX;
#X obj 1220 249 v accelY;
#X obj 1267 284 v accelZ;
#X obj 924 479 pack 0 0 0;
#X obj 924 560 send toGUI;
#X msg 924 520 list /normGyro x: \$1 y: \$2 z: \$3;
#X msg 280 639 list /normGyro \$2;
#X obj 224 551 v gyroX;
#X obj 318 551 v gyroY;
#X obj 420 551 v gyroZ;
#X obj 8 475 v gyroXorgnl;
#X obj 44 527 v gyroYorgnl;
#X obj 108 561 v gyroZorgnl;
#X msg 36 654 list /normAcc \$2;
#X obj 288 490 metro 250;
#N canvas -8 -8 1536 781 cookAccel 0;
#X obj 273 178 unpack 0 0 0;
#X obj 273 136 inlet;
#X obj 273 222 clip -1 1;
#X obj 319 290 clip -1 1;
#X obj 366 359 clip -1 1;
#X obj 273 252 outlet;
#X obj 319 321 outlet;
#X obj 366 390 outlet;
#X connect 0 0 2 0;
#X connect 0 1 3 0;
#X connect 0 2 4 0;
#X connect 1 0 0 0;
#X connect 2 0 5 0;
#X connect 3 0 6 0;
#X connect 4 0 7 0;
#X restore 1174 176 pd cookAccel;
#X connect 0 0 1 0;
#X connect 1 0 2 0;
#X connect 2 0 19 0;
#X connect 2 0 20 0;
#X connect 3 0 4 0;
#X connect 4 0 7 0;
#X connect 7 0 25 0;
#X connect 7 1 50 0;
#X connect 9 0 41 0;
#X connect 10 0 48 0;
#X connect 11 0 15 0;
#X connect 14 0 11 0;
#X connect 16 0 17 0;
#X connect 18 0 22 0;
#X connect 19 0 6 0;
#X connect 19 0 11 1;
#X connect 20 0 17 1;
#X connect 21 0 23 0;
#X connect 22 0 5 0;
#X connect 23 0 24 0;
#X connect 25 0 26 0;
#X connect 25 1 28 0;
#X connect 25 2 29 0;
#X connect 25 3 30 0;
#X connect 26 0 13 0;
#X connect 26 1 27 0;
#X connect 27 0 31 0;
#X connect 31 0 32 0;
#X connect 31 0 33 0;
#X connect 31 0 34 0;
#X connect 32 0 38 0;
#X connect 33 0 38 1;
#X connect 34 0 38 2;
#X connect 38 0 40 0;
#X connect 40 0 39 0;
#X connect 41 0 8 0;
#X connect 42 0 9 0;
#X connect 43 0 9 1;
#X connect 44 0 9 2;
#X connect 45 0 10 0;
#X connect 46 0 10 1;
#X connect 47 0 10 2;
#X connect 48 0 8 0;
#X connect 49 0 42 0;
#X connect 49 0 43 0;
#X connect 49 0 44 0;
#X connect 49 0 45 0;
#X connect 49 0 46 0;
#X connect 49 0 47 0;
#X connect 50 0 35 0;
#X connect 50 1 36 0;
#X connect 50 2 37 0;
